<svg width="18" height="21" viewBox="0 0 18 21" fill="none" xmlns="http://www.w3.org/2000/svg">
<path d="M16.79 6.13C16.6958 6.01082 16.5757 5.91466 16.4389 5.84882C16.302 5.78298 16.1519 5.74918 16 5.75H5V5.25C5.00124 4.81468 5.14449 4.39165 5.40799 4.04514C5.67148 3.69862 6.04084 3.44754 6.46 3.33C6.72928 3.58983 7.08595 3.73963 7.46 3.75H8.46C8.85782 3.75 9.23935 3.59196 9.52066 3.31066C9.80196 3.02936 9.96 2.64782 9.96 2.25C9.96 1.85218 9.80196 1.47064 9.52066 1.18934C9.23935 0.908035 8.85782 0.75 8.46 0.75H7.46C7.23456 0.75031 7.01214 0.80177 6.80947 0.900504C6.60681 0.999237 6.42919 1.14267 6.29 1.32C5.36826 1.48625 4.53409 1.97067 3.93287 2.68884C3.33166 3.40702 3.00152 4.31339 3 5.25V5.75H2C1.84811 5.74918 1.69802 5.78298 1.56114 5.84882C1.42426 5.91466 1.30417 6.01082 1.21 6.13C1.10982 6.24874 1.03869 6.38918 1.00224 6.5402C0.965786 6.69121 0.965019 6.84864 0.999999 7L1.62 9.49C1.76804 10.0635 2.08255 10.5804 2.52388 10.9755C2.96522 11.3705 3.51363 11.6261 4.1 11.71L4.88 18.71H4C3.73478 18.71 3.48043 18.8154 3.29289 19.0029C3.10536 19.1904 3 19.4448 3 19.71C3 19.9752 3.10536 20.2296 3.29289 20.4171C3.48043 20.6046 3.73478 20.71 4 20.71H14C14.2652 20.71 14.5196 20.6046 14.7071 20.4171C14.8946 20.2296 15 19.9752 15 19.71C15 19.4448 14.8946 19.1904 14.7071 19.0029C14.5196 18.8154 14.2652 18.71 14 18.71H13.12L13.9 11.71C14.4822 11.6199 15.025 11.3604 15.4607 10.9639C15.8964 10.5673 16.2057 10.0512 16.35 9.48L17 7C17.035 6.84864 17.0342 6.69121 16.9978 6.5402C16.9613 6.38918 16.8902 6.24874 16.79 6.13ZM11.1 18.75H6.9L6.12 11.75H11.88L11.1 18.75ZM14.41 9C14.3552 9.22188 14.2262 9.41831 14.0442 9.55659C13.8623 9.69487 13.6384 9.76666 13.41 9.76H4.56C4.33156 9.76666 4.10774 9.69487 3.92579 9.55659C3.74384 9.41831 3.61475 9.22188 3.56 9L3.28 7.75H14.72L14.41 9Z" fill="url(#paint0_linear_1034_7)"/>
<defs>
<linearGradient id="paint0_linear_1034_7" x1="9" y1="0.75" x2="9" y2="20.71" gradientUnits="userSpaceOnUse">
<stop stop-color="#FD7A1E"/>
<stop offset="1" stop-color="#D88D59"/>
</linearGradient>
</defs>
</svg>
