<svg width="48" height="48" viewBox="0 0 48 48" fill="none" xmlns="http://www.w3.org/2000/svg">
<path d="M9.91999 25.0503C10.0574 25.1919 10.2223 25.3039 10.4046 25.3796C10.5869 25.4553 10.7827 25.4929 10.98 25.4903C11.1771 25.4912 11.3724 25.4527 11.5544 25.3772C11.7364 25.3016 11.9015 25.1905 12.04 25.0503L14.16 22.9303L16.31 25.0503C16.5912 25.3312 16.9725 25.4889 17.37 25.4889C17.7675 25.4889 18.1487 25.3312 18.43 25.0503C18.5703 24.9117 18.6817 24.7466 18.7577 24.5647C18.8337 24.3827 18.8728 24.1875 18.8728 23.9903C18.8728 23.7931 18.8337 23.5978 18.7577 23.4159C18.6817 23.2339 18.5703 23.0688 18.43 22.9303L16.31 20.8103L18.43 18.6903C18.695 18.4059 18.8392 18.0298 18.8323 17.6412C18.8255 17.2526 18.6681 16.8818 18.3932 16.607C18.1184 16.3322 17.7476 16.1748 17.359 16.1679C16.9704 16.1611 16.5943 16.3053 16.31 16.5703L14.19 18.6903L12.07 16.5703C11.7856 16.3053 11.4095 16.1611 11.0209 16.1679C10.6323 16.1748 10.2616 16.3322 9.98675 16.607C9.71192 16.8818 9.55449 17.2526 9.54764 17.6412C9.54078 18.0298 9.68503 18.4059 9.94999 18.6903L12.07 20.8103L9.94999 22.9303C9.80772 23.0669 9.69399 23.2303 9.61538 23.4112C9.53677 23.5921 9.49486 23.7868 9.49207 23.984C9.48927 24.1812 9.52566 24.377 9.59912 24.56C9.67258 24.7431 9.78164 24.9097 9.91999 25.0503ZM23.31 12.6303H30.12C30.3335 12.6285 30.5421 12.5657 30.7211 12.4493C30.9001 12.3329 31.0421 12.1678 31.1304 11.9733C31.2187 11.7789 31.2496 11.5633 31.2194 11.3519C31.1892 11.1405 31.0992 10.9422 30.96 10.7803L27.55 6.89026C27.4458 6.76963 27.3168 6.67286 27.1719 6.60653C27.0269 6.5402 26.8694 6.50586 26.71 6.50586C26.5506 6.50586 26.393 6.5402 26.2481 6.60653C26.1032 6.67286 25.9742 6.76963 25.87 6.89026L22.47 10.7803C22.3308 10.9422 22.2408 11.1405 22.2106 11.3519C22.1804 11.5633 22.2113 11.7789 22.2996 11.9733C22.3878 12.1678 22.5299 12.3329 22.7089 12.4493C22.8879 12.5657 23.0965 12.6285 23.31 12.6303ZM38.31 22.8103L40.43 20.6903C40.695 20.4059 40.8392 20.0298 40.8323 19.6412C40.8255 19.2526 40.6681 18.8818 40.3932 18.607C40.1184 18.3322 39.7476 18.1748 39.359 18.1679C38.9704 18.1611 38.5943 18.3053 38.31 18.5703L36.19 20.6903L34.07 18.5703C33.7856 18.3053 33.4095 18.1611 33.0209 18.1679C32.6323 18.1748 32.2616 18.3322 31.9867 18.607C31.7119 18.8818 31.5545 19.2526 31.5476 19.6412C31.5408 20.0298 31.685 20.4059 31.95 20.6903L34.07 22.8103L31.95 24.9303C31.8097 25.0688 31.6983 25.2339 31.6223 25.4159C31.5463 25.5978 31.5071 25.7931 31.5071 25.9903C31.5071 26.1875 31.5463 26.3827 31.6223 26.5647C31.6983 26.7466 31.8097 26.9117 31.95 27.0503C32.0874 27.1919 32.2523 27.3039 32.4346 27.3796C32.6169 27.4553 32.8127 27.4929 33.01 27.4903C33.2071 27.4912 33.4023 27.4527 33.5844 27.3772C33.7664 27.3016 33.9315 27.1905 34.07 27.0503L36.19 24.9303L38.31 27.0503C38.5912 27.3312 38.9725 27.4889 39.37 27.4889C39.7675 27.4889 40.1487 27.3312 40.43 27.0503C40.5703 26.9117 40.6817 26.7466 40.7577 26.5647C40.8337 26.3827 40.8728 26.1875 40.8728 25.9903C40.8728 25.7931 40.8337 25.5978 40.7577 25.4159C40.6817 25.2339 40.5703 25.0688 40.43 24.9303L38.31 22.8103ZM26.58 25.8103C27.0924 25.3007 27.4986 24.6944 27.775 24.0267C28.0514 23.3589 28.1924 22.6429 28.19 21.9203V15.1303H25.19V21.9003C25.1858 22.5627 24.924 23.1975 24.46 23.6703L16.2 31.9203C15.4244 31.5184 14.5635 31.3091 13.69 31.3103C12.4638 31.3017 11.2695 31.7001 10.2941 32.4432C9.31874 33.1862 8.61741 34.2318 8.30005 35.4162C7.98269 36.6006 8.06722 37.8568 8.5404 38.988C9.01358 40.1192 9.84867 41.0615 10.9148 41.6671C11.981 42.2728 13.2179 42.5076 14.4318 42.3349C15.6458 42.1621 16.7681 41.5915 17.6229 40.7124C18.4778 39.8334 19.0168 38.6956 19.1557 37.4773C19.2945 36.259 19.0252 35.0291 18.39 33.9803L26.58 25.8103ZM13.66 39.3103C13.1655 39.3103 12.6822 39.1636 12.2711 38.8889C11.8599 38.6142 11.5395 38.2238 11.3503 37.767C11.1611 37.3102 11.1116 36.8075 11.208 36.3225C11.3045 35.8376 11.5426 35.3921 11.8922 35.0425C12.2419 34.6929 12.6873 34.4548 13.1723 34.3583C13.6572 34.2618 14.1599 34.3113 14.6167 34.5006C15.0735 34.6898 15.464 35.0102 15.7387 35.4213C16.0134 35.8325 16.16 36.3158 16.16 36.8103C16.16 37.4733 15.8966 38.1092 15.4278 38.578C14.9589 39.0469 14.323 39.3103 13.66 39.3103ZM33.4 33.5703C33.2614 33.43 33.0963 33.3186 32.9144 33.2426C32.7324 33.1665 32.5372 33.1274 32.34 33.1274C32.1428 33.1274 31.9476 33.1665 31.7656 33.2426C31.5836 33.3186 31.4186 33.43 31.28 33.5703L29.16 35.6903L27.04 33.5703C26.7556 33.3053 26.3795 33.1611 25.9909 33.1679C25.6023 33.1748 25.2316 33.3322 24.9567 33.607C24.6819 33.8818 24.5245 34.2526 24.5176 34.6412C24.5108 35.0298 24.655 35.4059 24.92 35.6903L27.04 37.8103L24.92 39.9303C24.7797 40.0688 24.6683 40.2339 24.5923 40.4159C24.5163 40.5978 24.4771 40.7931 24.4771 40.9903C24.4771 41.1875 24.5163 41.3827 24.5923 41.5647C24.6683 41.7466 24.7797 41.9117 24.92 42.0503C25.0574 42.1919 25.2223 42.3039 25.4046 42.3796C25.5869 42.4553 25.7827 42.4929 25.98 42.4903C26.1771 42.4912 26.3724 42.4527 26.5544 42.3772C26.7364 42.3016 26.9015 42.1905 27.04 42.0503L29.16 39.9303L31.28 42.0503C31.5612 42.3312 31.9425 42.4889 32.34 42.4889C32.7375 42.4889 33.1187 42.3312 33.4 42.0503C33.5403 41.9117 33.6517 41.7466 33.7277 41.5647C33.8037 41.3827 33.8428 41.1875 33.8428 40.9903C33.8428 40.7931 33.8037 40.5978 33.7277 40.4159C33.6517 40.2339 33.5403 40.0688 33.4 39.9303L31.31 37.8103L33.43 35.6903C33.5683 35.5497 33.6774 35.3831 33.7509 35.2C33.8243 35.017 33.8607 34.8212 33.8579 34.624C33.8551 34.4268 33.8132 34.2321 33.7346 34.0512C33.656 33.8703 33.5423 33.7069 33.4 33.5703Z" fill="#FD7A1E"/>
</svg>
