<svg width="20" height="20" viewBox="0 0 20 20" fill="none" xmlns="http://www.w3.org/2000/svg">
<path d="M8.29 9.71C8.38296 9.80373 8.49356 9.87812 8.61542 9.92889C8.73728 9.97966 8.86799 10.0058 9 10.0058C9.13201 10.0058 9.26272 9.97966 9.38458 9.92889C9.50644 9.87812 9.61704 9.80373 9.71 9.71L13.71 5.71C13.8032 5.61676 13.8772 5.50607 13.9277 5.38425C13.9781 5.26243 14.0041 5.13186 14.0041 5C14.0041 4.86814 13.9781 4.73757 13.9277 4.61575C13.8772 4.49393 13.8032 4.38324 13.71 4.29C13.6168 4.19676 13.5061 4.1228 13.3842 4.07234C13.2624 4.02188 13.1319 3.99591 13 3.99591C12.8681 3.99591 12.7376 4.02188 12.6158 4.07234C12.4939 4.1228 12.3832 4.19676 12.29 4.29L9 7.59L7.71 6.29C7.5217 6.1017 7.2663 5.99591 7 5.99591C6.7337 5.99591 6.4783 6.1017 6.29 6.29C6.1017 6.4783 5.99591 6.7337 5.99591 7C5.99591 7.2663 6.1017 7.5217 6.29 7.71L8.29 9.71ZM19 12H18V2H19C19.2652 2 19.5196 1.89464 19.7071 1.70711C19.8946 1.51957 20 1.26522 20 1C20 0.734784 19.8946 0.48043 19.7071 0.292893C19.5196 0.105357 19.2652 0 19 0H1C0.734784 0 0.48043 0.105357 0.292893 0.292893C0.105357 0.48043 0 0.734784 0 1C0 1.26522 0.105357 1.51957 0.292893 1.70711C0.48043 1.89464 0.734784 2 1 2H2V12H1C0.734784 12 0.48043 12.1054 0.292893 12.2929C0.105357 12.4804 0 12.7348 0 13C0 13.2652 0.105357 13.5196 0.292893 13.7071C0.48043 13.8946 0.734784 14 1 14H9V15.15L4.45 18.15C4.26333 18.2655 4.11988 18.4393 4.04177 18.6445C3.96366 18.8496 3.95523 19.0748 4.01779 19.2852C4.08035 19.4957 4.21042 19.6797 4.38793 19.8089C4.56544 19.938 4.78053 20.0052 5 20C5.1966 20.0022 5.38896 19.9428 5.55 19.83L9 17.55V19C9 19.2652 9.10536 19.5196 9.29289 19.7071C9.48043 19.8946 9.73478 20 10 20C10.2652 20 10.5196 19.8946 10.7071 19.7071C10.8946 19.5196 11 19.2652 11 19V17.55L14.45 19.83C14.611 19.9428 14.8034 20.0022 15 20C15.2136 19.9984 15.4212 19.9283 15.5921 19.8002C15.7631 19.672 15.8885 19.4925 15.95 19.2879C16.0115 19.0832 16.0058 18.8643 15.9338 18.6631C15.8619 18.462 15.7273 18.2892 15.55 18.17L11 15.17V14H19C19.2652 14 19.5196 13.8946 19.7071 13.7071C19.8946 13.5196 20 13.2652 20 13C20 12.7348 19.8946 12.4804 19.7071 12.2929C19.5196 12.1054 19.2652 12 19 12ZM16 12H4V2H16V12Z" fill="url(#paint0_linear_1034_11)"/>
<defs>
<linearGradient id="paint0_linear_1034_11" x1="10" y1="0" x2="10" y2="20.0003" gradientUnits="userSpaceOnUse">
<stop stop-color="#FD7A1E"/>
<stop offset="1" stop-color="#D88D59"/>
</linearGradient>
</defs>
</svg>
