<svg width="48" height="48" viewBox="0 0 48 48" fill="none" xmlns="http://www.w3.org/2000/svg">
<path d="M8.75 19.4199H7.25C6.71957 19.4199 6.21086 19.6306 5.83578 20.0057C5.46071 20.3808 5.25 20.8895 5.25 21.4199V28.4199C5.25 28.9504 5.46071 29.4591 5.83578 29.8341C6.21086 30.2092 6.71957 30.4199 7.25 30.4199H8.75C8.88261 30.4199 9.00979 30.3672 9.10355 30.2735C9.19732 30.1797 9.25 30.0525 9.25 29.9199V19.9199C9.25 19.7873 9.19732 19.6601 9.10355 19.5664C9.00979 19.4726 8.88261 19.4199 8.75 19.4199ZM34.61 12.2999L12.11 18.6299C12.0061 18.6602 11.9149 18.7234 11.85 18.8099C11.7851 18.8965 11.75 19.0017 11.75 19.1099V31.0499V35.0499C11.7506 35.8382 12.0301 36.6008 12.5388 37.2029C13.0476 37.805 13.7529 38.2078 14.53 38.3399L21.87 39.4999C22.053 39.5147 22.237 39.5147 22.42 39.4999C23.3024 39.4973 24.1478 39.1456 24.7718 38.5217C25.3957 37.8977 25.7474 37.0523 25.75 36.1699V34.8399L34.62 37.2499C34.6939 37.2698 34.7713 37.2725 34.8464 37.2577C34.9215 37.243 34.9922 37.2112 35.053 37.1648C35.1139 37.1185 35.1633 37.0588 35.1974 36.9903C35.2316 36.9218 35.2496 36.8464 35.25 36.7699V12.7699C35.2485 12.6931 35.2293 12.6178 35.1939 12.5496C35.1585 12.4814 35.1079 12.4223 35.0461 12.3769C34.9842 12.3314 34.9126 12.3009 34.837 12.2875C34.7614 12.2742 34.6837 12.2784 34.61 12.2999ZM22.75 36.2999C22.75 36.3479 22.7393 36.3953 22.7185 36.4386C22.6977 36.4819 22.6675 36.5199 22.63 36.5499C22.5925 36.58 22.549 36.6018 22.5025 36.6139C22.456 36.6259 22.4074 36.628 22.36 36.6199L15.03 35.3999C14.9514 35.3879 14.8798 35.3479 14.8283 35.2872C14.7769 35.2266 14.7491 35.1494 14.75 35.0699V31.8599L22.75 34.0299V36.2999ZM41.75 9.46992H39.75C39.2196 9.46992 38.7109 9.68064 38.3358 10.0557C37.9607 10.4308 37.75 10.9395 37.75 11.4699V37.4699C37.75 38.0004 37.9607 38.5091 38.3358 38.8841C38.7109 39.2592 39.2196 39.4699 39.75 39.4699H41.75C42.2804 39.4699 42.7891 39.2592 43.1642 38.8841C43.5393 38.5091 43.75 38.0004 43.75 37.4699V11.4699C43.7567 11.2031 43.7099 10.9376 43.6124 10.6892C43.5148 10.4407 43.3686 10.2143 43.1822 10.0233C42.9958 9.83223 42.7731 9.68042 42.5271 9.5768C42.2811 9.47318 42.0169 9.41984 41.75 9.41992V9.46992Z" fill="#FD7A1E"/>
</svg>
