<svg width="18" height="20" viewBox="0 0 18 20" fill="none" xmlns="http://www.w3.org/2000/svg">
<path d="M17.18 8.19C16.4607 8.05985 15.731 7.99624 15 8C14.58 8 14.17 8 13.76 8.08C13.2496 7.39888 12.5981 6.83605 11.85 6.43C12.4925 5.72825 12.8493 4.81148 12.85 3.86C12.85 2.83626 12.4433 1.85446 11.7194 1.13057C10.9955 0.406677 10.0137 0 8.99 0C7.96627 0 6.98446 0.406677 6.26057 1.13057C5.53668 1.85446 5.13 2.83626 5.13 3.86C5.13074 4.81148 5.48746 5.72825 6.13 6.43C5.3864 6.83816 4.73593 7.39668 4.22 8.07C3.83 8 3.42 8 3 8C2.26843 8.00284 1.53867 8.07314 0.820003 8.21C0.587046 8.2526 0.376765 8.37649 0.226603 8.55961C0.0764399 8.74274 -0.0038589 8.97321 3.41018e-06 9.21V17.46C-0.000235172 17.6069 0.0318986 17.7521 0.0941196 17.8852C0.156341 18.0182 0.247121 18.136 0.360003 18.23C0.472174 18.3246 0.603784 18.3933 0.745497 18.4313C0.88721 18.4694 1.03555 18.4757 1.18 18.45C1.77841 18.3197 2.38777 18.246 3 18.23C4.9371 18.2279 6.83217 18.7947 8.45 19.86L8.58 19.91C8.71265 19.9676 8.85542 19.9982 9 20C9.09545 19.9988 9.19005 19.9819 9.28 19.95H9.35L9.48 19.9C11.1132 18.8073 13.035 18.2259 15 18.23C15.611 18.2328 16.2203 18.2931 16.82 18.41C16.9645 18.4357 17.1128 18.4294 17.2545 18.3913C17.3962 18.3533 17.5278 18.2846 17.64 18.19C17.7529 18.096 17.8437 17.9782 17.9059 17.8452C17.9681 17.7121 18.0002 17.5669 18 17.42V9.17C17.9991 8.93664 17.9167 8.71092 17.7669 8.53195C17.6172 8.35297 17.4096 8.232 17.18 8.19ZM9 2C9.46845 2.03442 9.90653 2.2448 10.2263 2.58888C10.546 2.93297 10.7237 3.38529 10.7237 3.855C10.7237 4.32471 10.546 4.77703 10.2263 5.12112C9.90653 5.4652 9.46845 5.67558 9 5.71C8.53156 5.67558 8.09348 5.4652 7.77374 5.12112C7.45401 4.77703 7.27629 4.32471 7.27629 3.855C7.27629 3.38529 7.45401 2.93297 7.77374 2.58888C8.09348 2.2448 8.53156 2.03442 9 2ZM8 17.33C6.43268 16.6055 4.72667 16.2302 3 16.23C2.67 16.23 2.34 16.23 2 16.28V10C2.83857 9.90619 3.68582 9.923 4.52 10.05H4.63C5.8216 10.269 6.96348 10.7027 8 11.33V17.33ZM9 9.6C8.55533 9.34348 8.09434 9.11633 7.62 8.92H7.56C7.23 8.79 6.9 8.66 6.56 8.56C7.25432 8.00737 8.11268 7.70132 9 7.69C9.88497 7.69561 10.7431 7.99455 11.44 8.54C10.5911 8.80503 9.77308 9.1604 9 9.6ZM16 16.28C13.9467 16.0737 11.8754 16.4189 10 17.28V11.28C11.0384 10.6688 12.181 10.2552 13.37 10.06H13.57C14.374 9.9348 15.1908 9.91463 16 10V16.28Z" fill="url(#paint0_linear_1034_13)"/>
<defs>
<linearGradient id="paint0_linear_1034_13" x1="8.99994" y1="0" x2="8.99994" y2="20" gradientUnits="userSpaceOnUse">
<stop stop-color="#FD7A1E"/>
<stop offset="1" stop-color="#D88D59"/>
</linearGradient>
</defs>
</svg>
