<svg width="21" height="20" viewBox="0 0 21 20" fill="none" xmlns="http://www.w3.org/2000/svg">
<path d="M21 8.99993C21.0028 8.29509 20.8193 7.60203 20.4681 6.99092C20.1169 6.37981 19.6104 5.87235 19 5.51993C19.0151 5.34693 19.0151 5.17294 19 4.99993C19 4.20428 18.6839 3.44122 18.1213 2.87861C17.5587 2.316 16.7956 1.99993 16 1.99993H15.82C15.6535 1.53825 15.3762 1.12447 15.0125 0.79488C14.6489 0.465293 14.2099 0.229967 13.7341 0.109537C13.2583 -0.0108932 12.7602 -0.0127487 12.2835 0.104133C11.8068 0.221015 11.3661 0.453065 11 0.779933C10.6339 0.453065 10.1932 0.221015 9.71647 0.104133C9.23979 -0.0127487 8.74171 -0.0108932 8.26592 0.109537C7.79012 0.229967 7.35113 0.465293 6.98746 0.79488C6.62378 1.12447 6.34653 1.53825 6.18 1.99993H6C5.20435 1.99993 4.44129 2.316 3.87868 2.87861C3.31607 3.44122 3 4.20428 3 4.99993C2.98495 5.17294 2.98495 5.34693 3 5.51993C2.43246 5.84073 1.95193 6.29538 1.60024 6.84431C1.24855 7.39323 1.03636 8.0198 0.982137 8.66947C0.927915 9.31914 1.03331 9.97222 1.28914 10.5719C1.54497 11.1715 1.94349 11.6995 2.45 12.1099C2.12227 12.7212 1.95911 13.4072 1.97654 14.1005C1.99398 14.7939 2.19139 15.4708 2.54942 16.0648C2.90745 16.6589 3.41379 17.1496 4.01873 17.4888C4.62367 17.8281 5.30643 18.0042 6 17.9999H6.18C6.34653 18.4616 6.62378 18.8754 6.98746 19.205C7.35113 19.5346 7.79012 19.7699 8.26592 19.8903C8.74171 20.0108 9.23979 20.0126 9.71647 19.8957C10.1932 19.7789 10.6339 19.5468 11 19.2199C11.3661 19.5468 11.8068 19.7789 12.2835 19.8957C12.7602 20.0126 13.2583 20.0108 13.7341 19.8903C14.2099 19.7699 14.6489 19.5346 15.0125 19.205C15.3762 18.8754 15.6535 18.4616 15.82 17.9999H16C16.6893 17.9956 17.3658 17.8131 17.9639 17.4703C18.562 17.1275 19.0613 16.636 19.4134 16.0434C19.7656 15.4508 19.9586 14.7772 19.9738 14.088C19.9889 13.3989 19.8257 12.7175 19.5 12.1099C19.9664 11.7365 20.3433 11.2633 20.6029 10.7251C20.8624 10.1869 20.9981 9.59744 21 8.99993ZM10 6.54993C9.7822 6.42536 9.55481 6.31836 9.32 6.22993C9.06804 6.14506 8.79269 6.16376 8.55452 6.28191C8.31635 6.40006 8.13487 6.60798 8.05 6.85993C7.96513 7.11189 7.98383 7.38724 8.10197 7.62541C8.22012 7.86358 8.42804 8.04506 8.68 8.12993C9.06494 8.2691 9.39791 8.52302 9.63397 8.85743C9.87002 9.19183 9.99778 9.59061 10 9.99993V11.5499C9.7822 11.4254 9.55481 11.3184 9.32 11.2299C9.06804 11.1451 8.79269 11.1638 8.55452 11.2819C8.31635 11.4001 8.13487 11.608 8.05 11.8599C7.96513 12.1119 7.98383 12.3872 8.10197 12.6254C8.22012 12.8636 8.42804 13.0451 8.68 13.1299C9.06494 13.2691 9.39791 13.523 9.63397 13.8574C9.87002 14.1918 9.99778 14.5906 10 14.9999V16.9999C10 17.2652 9.89464 17.5195 9.70711 17.707C9.51957 17.8946 9.26522 17.9999 9 17.9999C8.80653 17.9987 8.61759 17.9413 8.45607 17.8348C8.29454 17.7283 8.16738 17.5773 8.09 17.3999C8.25768 17.3015 8.41809 17.1913 8.57 17.0699C8.67112 16.9859 8.75469 16.8827 8.81595 16.7664C8.87721 16.6501 8.91495 16.5228 8.92702 16.3919C8.93909 16.2609 8.92526 16.1289 8.8863 16.0033C8.84735 15.8777 8.78405 15.7611 8.7 15.6599C8.61595 15.5588 8.51281 15.4752 8.39647 15.414C8.28013 15.3527 8.15285 15.315 8.02192 15.3029C7.89099 15.2908 7.75897 15.3047 7.63338 15.3436C7.5078 15.3826 7.39112 15.4459 7.29 15.5299C6.92893 15.8339 6.47199 16.0004 6 15.9999C5.46957 15.9999 4.96086 15.7892 4.58579 15.4141C4.21071 15.0391 4 14.5304 4 13.9999C4.00478 13.6235 4.1157 13.2561 4.32 12.9399C4.54442 12.9802 4.772 13.0003 5 12.9999C5.26522 12.9999 5.51957 12.8946 5.70711 12.707C5.89464 12.5195 6 12.2651 6 11.9999C6 11.7347 5.89464 11.4804 5.70711 11.2928C5.51957 11.1053 5.26522 10.9999 5 10.9999C4.76379 11.0013 4.52952 10.9572 4.31 10.8699C3.95034 10.7402 3.6354 10.5101 3.40249 10.2069C3.16958 9.90374 3.02845 9.54014 2.99583 9.1592C2.96321 8.77826 3.04046 8.39596 3.21843 8.05757C3.3964 7.71919 3.66763 7.43891 4 7.24993C4.1421 7.38067 4.2961 7.49785 4.46 7.59993C4.69074 7.73254 4.9647 7.76806 5.22163 7.69867C5.47855 7.62928 5.69739 7.46067 5.83 7.22993C5.96261 6.99919 5.99812 6.72523 5.92874 6.4683C5.85935 6.21138 5.69074 5.99254 5.46 5.85993C5.31923 5.78228 5.20182 5.66833 5.12 5.52993C5.02755 5.36938 4.98572 5.18465 5 4.99993C5 4.73472 5.10536 4.48036 5.29289 4.29283C5.48043 4.10529 5.73478 3.99993 6 3.99993C6.06966 3.99022 6.14034 3.99022 6.21 3.99993C6.26294 4.1606 6.32641 4.31761 6.4 4.46993C6.46533 4.58452 6.55268 4.68505 6.65703 4.76574C6.76138 4.84642 6.88066 4.90566 7.008 4.94005C7.13534 4.97445 7.26822 4.9833 7.399 4.96612C7.52978 4.94894 7.65587 4.90605 7.77 4.83993C7.99171 4.70654 8.15308 4.49241 8.22021 4.24253C8.28734 3.99265 8.25501 3.72647 8.13 3.49993C8.04609 3.34654 8.00143 3.17477 8 2.99993C8 2.73472 8.10536 2.48036 8.29289 2.29283C8.48043 2.10529 8.73478 1.99993 9 1.99993C9.26522 1.99993 9.51957 2.10529 9.70711 2.29283C9.89464 2.48036 10 2.73472 10 2.99993V6.54993ZM17.69 10.8699C17.4705 10.9572 17.2362 11.0013 17 10.9999C16.7348 10.9999 16.4804 11.1053 16.2929 11.2928C16.1054 11.4804 16 11.7347 16 11.9999C16 12.2651 16.1054 12.5195 16.2929 12.707C16.4804 12.8946 16.7348 12.9999 17 12.9999C17.228 13.0003 17.4556 12.9802 17.68 12.9399C17.8843 13.2561 17.9952 13.6235 18 13.9999C18 14.5304 17.7893 15.0391 17.4142 15.4141C17.0391 15.7892 16.5304 15.9999 16 15.9999C15.528 16.0004 15.0711 15.8339 14.71 15.5299C14.5058 15.3602 14.2425 15.2785 13.9781 15.3029C13.7136 15.3273 13.4697 15.4557 13.3 15.6599C13.1303 15.8641 13.0486 16.1274 13.073 16.3919C13.0974 16.6563 13.2258 16.9002 13.43 17.0699C13.5819 17.1913 13.7423 17.3015 13.91 17.3999C13.8326 17.5773 13.7055 17.7283 13.5439 17.8348C13.3824 17.9413 13.1935 17.9987 13 17.9999C12.7348 17.9999 12.4804 17.8946 12.2929 17.707C12.1054 17.5195 12 17.2652 12 16.9999V14.9999C12.0022 14.5906 12.13 14.1918 12.366 13.8574C12.6021 13.523 12.9351 13.2691 13.32 13.1299C13.572 13.0451 13.7799 12.8636 13.898 12.6254C14.0162 12.3872 14.0349 12.1119 13.95 11.8599C13.8651 11.608 13.6836 11.4001 13.4455 11.2819C13.2073 11.1638 12.932 11.1451 12.68 11.2299C12.4452 11.3184 12.2178 11.4254 12 11.5499V9.99993C12.0022 9.59061 12.13 9.19183 12.366 8.85743C12.6021 8.52302 12.9351 8.2691 13.32 8.12993C13.572 8.04506 13.7799 7.86358 13.898 7.62541C14.0162 7.38724 14.0349 7.11189 13.95 6.85993C13.8651 6.60798 13.6836 6.40006 13.4455 6.28191C13.2073 6.16376 12.932 6.14506 12.68 6.22993C12.4452 6.31836 12.2178 6.42536 12 6.54993V2.99993C12 2.73472 12.1054 2.48036 12.2929 2.29283C12.4804 2.10529 12.7348 1.99993 13 1.99993C13.2652 1.99993 13.5196 2.10529 13.7071 2.29283C13.8946 2.48036 14 2.73472 14 2.99993C13.9986 3.17477 13.9539 3.34654 13.87 3.49993C13.8035 3.61347 13.76 3.73902 13.7421 3.86939C13.7242 3.99976 13.7322 4.13239 13.7656 4.25966C13.7991 4.38694 13.8573 4.50636 13.937 4.61108C14.0167 4.71581 14.1162 4.80377 14.23 4.86993C14.3441 4.93605 14.4702 4.97894 14.601 4.99612C14.7318 5.0133 14.8647 5.00445 14.992 4.97005C15.1193 4.93566 15.2386 4.87642 15.343 4.79574C15.4473 4.71505 15.5347 4.61452 15.6 4.49993C15.6748 4.33787 15.7383 4.1708 15.79 3.99993C15.8597 3.99022 15.9303 3.99022 16 3.99993C16.2652 3.99993 16.5196 4.10529 16.7071 4.29283C16.8946 4.48036 17 4.73472 17 4.99993C16.9985 5.19597 16.9394 5.38723 16.83 5.54993C16.7482 5.6797 16.6346 5.78641 16.5 5.85993C16.2693 5.99254 16.1007 6.21138 16.0313 6.4683C15.9619 6.72523 15.9974 6.99919 16.13 7.22993C16.2626 7.46067 16.4814 7.62928 16.7384 7.69867C16.9953 7.76806 17.2693 7.73254 17.5 7.59993C17.6795 7.50284 17.8473 7.3854 18 7.24993C18.3335 7.43557 18.6069 7.71276 18.788 8.04877C18.969 8.38478 19.0501 8.76558 19.0217 9.14621C18.9934 9.52684 18.8566 9.89139 18.6278 10.1968C18.3989 10.5023 18.0873 10.7358 17.73 10.8699H17.69Z" fill="url(#paint0_linear_1034_2)"/>
<defs>
<linearGradient id="paint0_linear_1034_2" x1="10.9842" y1="0.0178223" x2="10.9842" y2="19.982" gradientUnits="userSpaceOnUse">
<stop stop-color="#FD7A1E"/>
<stop offset="1" stop-color="#D88D59"/>
</linearGradient>
</defs>
</svg>
