<svg width="48" height="48" viewBox="0 0 48 48" fill="none" xmlns="http://www.w3.org/2000/svg">
<path d="M24.5 33C24.1022 33 23.7207 33.158 23.4393 33.4393C23.158 33.7206 23 34.1022 23 34.5V35.5C23 35.8978 23.158 36.2794 23.4393 36.5607C23.7207 36.842 24.1022 37 24.5 37C24.8978 37 25.2794 36.842 25.5607 36.5607C25.842 36.2794 26 35.8978 26 35.5V34.5C26 34.1022 25.842 33.7206 25.5607 33.4393C25.2794 33.158 24.8978 33 24.5 33ZM35 23.5H34C33.6022 23.5 33.2207 23.658 32.9394 23.9393C32.658 24.2206 32.5 24.6022 32.5 25C32.5 25.3978 32.658 25.7794 32.9394 26.0607C33.2207 26.342 33.6022 26.5 34 26.5H35C35.3978 26.5 35.7794 26.342 36.0607 26.0607C36.342 25.7794 36.5 25.3978 36.5 25C36.5 24.6022 36.342 24.2206 36.0607 23.9393C35.7794 23.658 35.3978 23.5 35 23.5ZM24.5 17C24.8978 17 25.2794 16.842 25.5607 16.5607C25.842 16.2794 26 15.8978 26 15.5V14.5C26 14.1022 25.842 13.7206 25.5607 13.4393C25.2794 13.158 24.8978 13 24.5 13C24.1022 13 23.7207 13.158 23.4393 13.4393C23.158 13.7206 23 14.1022 23 14.5V15.5C23 15.697 23.0388 15.892 23.1142 16.074C23.1896 16.256 23.3001 16.4214 23.4393 16.5607C23.5786 16.6999 23.744 16.8104 23.926 16.8858C24.108 16.9612 24.303 17 24.5 17ZM15 23.5H14C13.6022 23.5 13.2207 23.658 12.9393 23.9393C12.658 24.2206 12.5 24.6022 12.5 25C12.5 25.3978 12.658 25.7794 12.9393 26.0607C13.2207 26.342 13.6022 26.5 14 26.5H15C15.3978 26.5 15.7794 26.342 16.0607 26.0607C16.342 25.7794 16.5 25.3978 16.5 25C16.5 24.6022 16.342 24.2206 16.0607 23.9393C15.7794 23.658 15.3978 23.5 15 23.5ZM24.5 5C20.6433 5 16.8731 6.14365 13.6664 8.28634C10.4596 10.429 7.96027 13.4745 6.48436 17.0377C5.00845 20.6008 4.62228 24.5216 5.3747 28.3043C6.12711 32.0869 7.9843 35.5615 10.7114 38.2886C13.4385 41.0157 16.9131 42.8729 20.6957 43.6253C24.4784 44.3777 28.3992 43.9916 31.9623 42.5156C35.5255 41.0397 38.571 38.5404 40.7137 35.3336C42.8564 32.1269 44 28.3567 44 24.5C43.9921 19.3307 41.9351 14.3754 38.2798 10.7202C34.6246 7.06494 29.6693 5.00793 24.5 5ZM24.5 39C21.6322 39 18.8288 38.1496 16.4442 36.5563C14.0597 34.963 12.2012 32.6984 11.1038 30.0489C10.0063 27.3994 9.71914 24.4839 10.2786 21.6712C10.8381 18.8585 12.2191 16.2748 14.247 14.2469C16.2748 12.2191 18.8585 10.8381 21.6712 10.2786C24.4839 9.71912 27.3994 10.0063 30.0489 11.1037C32.6984 12.2012 34.963 14.0597 36.5563 16.4442C38.1496 18.8287 39 21.6322 39 24.5C38.9974 28.3448 37.4688 32.0314 34.7501 34.7501C32.0314 37.4688 28.3448 38.9974 24.5 39ZM28.33 21.49C28.1713 21.122 27.878 20.8287 27.51 20.67L18.08 16.46C17.8553 16.3957 17.6175 16.3926 17.3912 16.4512C17.1649 16.5097 16.9584 16.6278 16.7931 16.7931C16.6278 16.9584 16.5098 17.1649 16.4512 17.3912C16.3926 17.6174 16.3957 17.8553 16.46 18.08L20.67 27.51C20.8287 27.878 21.122 28.1713 21.49 28.33L30.92 32.54C31.146 32.609 31.3864 32.6156 31.6158 32.5591C31.8452 32.5026 32.055 32.3851 32.2231 32.2191C32.3912 32.053 32.5112 31.8446 32.5705 31.6159C32.6298 31.3873 32.6262 31.1468 32.56 30.92L28.33 21.49ZM24.5 26.49C24.1163 26.49 23.7412 26.3762 23.4222 26.163C23.1032 25.9499 22.8545 25.6469 22.7077 25.2924C22.5609 24.9379 22.5224 24.5478 22.5973 24.1715C22.6721 23.7952 22.8569 23.4495 23.1282 23.1782C23.3995 22.9069 23.7452 22.7221 24.1215 22.6473C24.4979 22.5724 24.8879 22.6108 25.2424 22.7577C25.5969 22.9045 25.8999 23.1532 26.1131 23.4722C26.3262 23.7912 26.44 24.1663 26.44 24.55C26.427 25.0558 26.2168 25.5365 25.8544 25.8896C25.492 26.2427 25.006 26.4402 24.5 26.44V26.49Z" fill="#FD7A1E"/>
</svg>
