<svg width="20" height="21" viewBox="0 0 20 21" fill="none" xmlns="http://www.w3.org/2000/svg">
<path d="M9.5 18H3.5C3.23478 18 2.98043 17.8946 2.79289 17.7071C2.60536 17.5196 2.5 17.2652 2.5 17V3C2.5 2.73478 2.60536 2.48043 2.79289 2.29289C2.98043 2.10536 3.23478 2 3.5 2H8.5V5C8.5 5.79565 8.81607 6.55871 9.37868 7.12132C9.94129 7.68393 10.7044 8 11.5 8H14.5V13C14.5 13.2652 14.6054 13.5196 14.7929 13.7071C14.9804 13.8946 15.2348 14 15.5 14C15.7652 14 16.0196 13.8946 16.2071 13.7071C16.3946 13.5196 16.5 13.2652 16.5 13V7C16.5 7 16.5 7 16.5 6.94C16.4896 6.84813 16.4695 6.75763 16.44 6.67V6.58C16.3919 6.47718 16.3278 6.38267 16.25 6.3V6.3L10.25 0.3C10.1673 0.222216 10.0728 0.158081 9.97 0.11C9.93692 0.104209 9.90308 0.104209 9.87 0.11C9.77276 0.058003 9.66826 0.020922 9.56 0H3.5C2.70435 0 1.94129 0.316071 1.37868 0.87868C0.816071 1.44129 0.5 2.20435 0.5 3V17C0.5 17.7956 0.816071 18.5587 1.37868 19.1213C1.94129 19.6839 2.70435 20 3.5 20H9.5C9.76522 20 10.0196 19.8946 10.2071 19.7071C10.3946 19.5196 10.5 19.2652 10.5 19C10.5 18.7348 10.3946 18.4804 10.2071 18.2929C10.0196 18.1054 9.76522 18 9.5 18ZM10.5 3.41L13.09 6H11.5C11.2348 6 10.9804 5.89464 10.7929 5.70711C10.6054 5.51957 10.5 5.26522 10.5 5V3.41ZM5.5 12H11.5C11.7652 12 12.0196 11.8946 12.2071 11.7071C12.3946 11.5196 12.5 11.2652 12.5 11C12.5 10.7348 12.3946 10.4804 12.2071 10.2929C12.0196 10.1054 11.7652 10 11.5 10H5.5C5.23478 10 4.98043 10.1054 4.79289 10.2929C4.60536 10.4804 4.5 10.7348 4.5 11C4.5 11.2652 4.60536 11.5196 4.79289 11.7071C4.98043 11.8946 5.23478 12 5.5 12ZM9.5 14H5.5C5.23478 14 4.98043 14.1054 4.79289 14.2929C4.60536 14.4804 4.5 14.7348 4.5 15C4.5 15.2652 4.60536 15.5196 4.79289 15.7071C4.98043 15.8946 5.23478 16 5.5 16H9.5C9.76522 16 10.0196 15.8946 10.2071 15.7071C10.3946 15.5196 10.5 15.2652 10.5 15C10.5 14.7348 10.3946 14.4804 10.2071 14.2929C10.0196 14.1054 9.76522 14 9.5 14ZM5.5 8H6.5C6.76522 8 7.01957 7.89464 7.20711 7.70711C7.39464 7.51957 7.5 7.26522 7.5 7C7.5 6.73478 7.39464 6.48043 7.20711 6.29289C7.01957 6.10536 6.76522 6 6.5 6H5.5C5.23478 6 4.98043 6.10536 4.79289 6.29289C4.60536 6.48043 4.5 6.73478 4.5 7C4.5 7.26522 4.60536 7.51957 4.79289 7.70711C4.98043 7.89464 5.23478 8 5.5 8ZM19.21 14.29C19.117 14.1963 19.0064 14.1219 18.8846 14.0711C18.7627 14.0203 18.632 13.9942 18.5 13.9942C18.368 13.9942 18.2373 14.0203 18.1154 14.0711C17.9936 14.1219 17.883 14.1963 17.79 14.29L14.5 17.59L13.21 16.29C13.1168 16.1968 13.0061 16.1228 12.8842 16.0723C12.7624 16.0219 12.6319 15.9959 12.5 15.9959C12.3681 15.9959 12.2376 16.0219 12.1158 16.0723C11.9939 16.1228 11.8832 16.1968 11.79 16.29C11.6968 16.3832 11.6228 16.4939 11.5723 16.6158C11.5219 16.7376 11.4959 16.8681 11.4959 17C11.4959 17.1319 11.5219 17.2624 11.5723 17.3842C11.6228 17.5061 11.6968 17.6168 11.79 17.71L13.79 19.71C13.883 19.8037 13.9936 19.8781 14.1154 19.9289C14.2373 19.9797 14.368 20.0058 14.5 20.0058C14.632 20.0058 14.7627 19.9797 14.8846 19.9289C15.0064 19.8781 15.117 19.8037 15.21 19.71L19.21 15.71C19.3037 15.617 19.3781 15.5064 19.4289 15.3846C19.4797 15.2627 19.5058 15.132 19.5058 15C19.5058 14.868 19.4797 14.7373 19.4289 14.6154C19.3781 14.4936 19.3037 14.383 19.21 14.29V14.29Z" fill="url(#paint0_linear_1034_23)"/>
<defs>
<linearGradient id="paint0_linear_1034_23" x1="10.0029" y1="0" x2="10.0029" y2="20.0058" gradientUnits="userSpaceOnUse">
<stop stop-color="#FD7A1E"/>
<stop offset="1" stop-color="#D88D59"/>
</linearGradient>
</defs>
</svg>
