<svg width="20" height="20" viewBox="0 0 20 20" fill="none" xmlns="http://www.w3.org/2000/svg">
<path d="M8.17 8.55C8.25069 8.67445 8.35806 8.77939 8.48431 8.85722C8.61057 8.93505 8.75256 8.98382 8.9 9C9.04809 9.01499 9.19765 8.99673 9.33778 8.94656C9.47791 8.89639 9.60508 8.81557 9.71 8.71L10.84 7.57L12.17 9.57C12.2629 9.70386 12.387 9.81301 12.5317 9.88795C12.6763 9.96289 12.8371 10.0014 13 10C13.1966 10.0022 13.389 9.94279 13.55 9.83C13.7692 9.68338 13.9216 9.4561 13.9741 9.19764C14.0265 8.93918 13.9747 8.67046 13.83 8.45L11.83 5.45C11.7493 5.32555 11.6419 5.22061 11.5157 5.14278C11.3894 5.06495 11.2474 5.01618 11.1 5C10.9519 4.98501 10.8024 5.00327 10.6622 5.05344C10.5221 5.10361 10.3949 5.18443 10.29 5.29L9.16 6.43L7.83 4.43C7.76423 4.30739 7.67359 4.19985 7.56389 4.11426C7.45419 4.02867 7.32783 3.96692 7.1929 3.93295C7.05797 3.89898 6.91743 3.89355 6.78028 3.91699C6.64313 3.94044 6.51238 3.99225 6.39639 4.0691C6.28041 4.14596 6.18174 4.24618 6.10669 4.36335C6.03165 4.48052 5.98188 4.61206 5.96057 4.74955C5.93926 4.88705 5.94688 5.02749 5.98294 5.16187C6.01901 5.29626 6.08272 5.42164 6.17 5.53L8.17 8.55ZM19 12H18V2H19C19.2652 2 19.5196 1.89464 19.7071 1.70711C19.8946 1.51957 20 1.26522 20 1C20 0.734784 19.8946 0.48043 19.7071 0.292893C19.5196 0.105357 19.2652 0 19 0H1C0.734784 0 0.48043 0.105357 0.292893 0.292893C0.105357 0.48043 0 0.734784 0 1C0 1.26522 0.105357 1.51957 0.292893 1.70711C0.48043 1.89464 0.734784 2 1 2H2V12H1C0.734784 12 0.48043 12.1054 0.292893 12.2929C0.105357 12.4804 0 12.7348 0 13C0 13.2652 0.105357 13.5196 0.292893 13.7071C0.48043 13.8946 0.734784 14 1 14H9V15.15L4.45 18.15C4.26333 18.2655 4.11988 18.4393 4.04177 18.6445C3.96366 18.8496 3.95523 19.0748 4.01779 19.2852C4.08035 19.4957 4.21042 19.6797 4.38793 19.8089C4.56544 19.938 4.78053 20.0052 5 20C5.1966 20.0022 5.38896 19.9428 5.55 19.83L9 17.55V19C9 19.2652 9.10536 19.5196 9.29289 19.7071C9.48043 19.8946 9.73478 20 10 20C10.2652 20 10.5196 19.8946 10.7071 19.7071C10.8946 19.5196 11 19.2652 11 19V17.55L14.45 19.83C14.611 19.9428 14.8034 20.0022 15 20C15.2136 19.9984 15.4212 19.9283 15.5921 19.8002C15.7631 19.672 15.8885 19.4925 15.95 19.2879C16.0115 19.0832 16.0058 18.8643 15.9338 18.6631C15.8619 18.462 15.7273 18.2892 15.55 18.17L11 15.17V14H19C19.2652 14 19.5196 13.8946 19.7071 13.7071C19.8946 13.5196 20 13.2652 20 13C20 12.7348 19.8946 12.4804 19.7071 12.2929C19.5196 12.1054 19.2652 12 19 12ZM16 12H4V2H16V12Z" fill="url(#paint0_linear_1034_10)"/>
<defs>
<linearGradient id="paint0_linear_1034_10" x1="10" y1="0" x2="10" y2="20.0003" gradientUnits="userSpaceOnUse">
<stop stop-color="#FD7A1E"/>
<stop offset="1" stop-color="#D88D59"/>
</linearGradient>
</defs>
</svg>
