<svg width="48" height="48" viewBox="0 0 48 48" fill="none" xmlns="http://www.w3.org/2000/svg">
<path d="M40.6858 20.3252C40.6825 18.5918 40.4023 16.8701 39.8558 15.2252L38.9658 16.1152C38.6451 16.4346 38.2645 16.6874 37.8457 16.859C37.4269 17.0306 36.9783 17.1177 36.5258 17.1152C36.4292 17.1201 36.3324 17.1201 36.2358 17.1152C36.9046 19.6018 36.7775 22.2354 35.8723 24.6461C34.9671 27.0567 33.3293 29.1231 31.1891 30.555C29.0489 31.9868 26.5138 32.712 23.9402 32.6287C21.3665 32.5454 18.8837 31.6578 16.8405 30.0907C14.7973 28.5235 13.2966 26.3555 12.5491 23.8914C11.8016 21.4273 11.845 18.7909 12.6732 16.3527C13.5014 13.9145 15.0727 11.7971 17.1664 10.2981C19.26 8.79903 21.7708 7.99365 24.3458 7.99515C25.6086 7.99155 26.864 8.18729 28.0658 8.57515C28.0785 7.68815 28.4373 6.84124 29.0658 6.21515L30.1858 5.09515C26.4514 3.65297 22.317 3.63458 18.5699 5.04347C14.8228 6.45237 11.7247 9.19014 9.86556 12.7355C8.00643 16.2808 7.5161 20.386 8.48794 24.2695C9.45978 28.153 11.8259 31.5434 15.1358 33.7952L12.4458 40.9952C12.3066 41.3678 12.3211 41.7804 12.4861 42.1424C12.6511 42.5043 12.9532 42.7859 13.3258 42.9252C13.4909 42.992 13.6676 43.026 13.8458 43.0252C14.1549 43.0228 14.4559 42.9257 14.708 42.7469C14.9602 42.568 15.1514 42.3161 15.2558 42.0252L17.7858 35.2752C19.5446 36.0492 21.4274 36.503 23.3458 36.6152V41.4952C23.3458 41.893 23.5038 42.2745 23.7851 42.5558C24.0664 42.8371 24.4479 42.9952 24.8458 42.9952C25.2436 42.9952 25.6251 42.8371 25.9064 42.5558C26.1877 42.2745 26.3458 41.893 26.3458 41.4952V36.4952C28.2324 36.2627 30.0635 35.7008 31.7558 34.8352L34.4458 41.9952C34.5471 42.2861 34.7361 42.5385 34.9869 42.7176C35.2376 42.8967 35.5377 42.9937 35.8458 42.9952C36.0273 42.9967 36.2073 42.9628 36.3758 42.8952C36.7484 42.7559 37.0504 42.4743 37.2154 42.1124C37.3805 41.7505 37.395 41.3378 37.2558 40.9652L34.3458 33.2152C36.3175 31.6941 37.9142 29.7413 39.0133 27.5067C40.1124 25.2722 40.6845 22.8154 40.6858 20.3252ZM24.3458 14.5752C24.597 14.5749 24.8478 14.5949 25.0958 14.6352L28.2758 11.4452C27.0439 10.8751 25.7032 10.5783 24.3458 10.5752C22.4074 10.5374 20.5016 11.0778 18.8716 12.1275C17.2415 13.1772 15.961 14.6886 15.1934 16.4689C14.4258 18.2493 14.2057 20.2179 14.5614 22.1238C14.9171 24.0297 15.8323 25.7864 17.1904 27.1701C18.5485 28.5537 20.2879 29.5015 22.1869 29.8926C24.0858 30.2838 26.0582 30.1005 27.8525 29.3661C29.6468 28.6318 31.1818 27.3797 32.2617 25.7695C33.3416 24.1593 33.9174 22.2639 33.9158 20.3252C33.9161 19.0058 33.6508 17.6998 33.1358 16.4852L29.8858 19.7452C29.896 19.9383 29.896 20.132 29.8858 20.3252C29.8504 21.4184 29.4939 22.4771 28.8608 23.3691C28.2277 24.2611 27.3459 24.9469 26.3256 25.3411C25.3052 25.7352 24.1913 25.8201 23.123 25.5853C22.0546 25.3505 21.079 24.8063 20.318 24.0206C19.5569 23.2349 19.044 22.2426 18.8433 21.1673C18.6425 20.092 18.7629 18.9814 19.1892 17.9741C19.6156 16.9668 20.3291 16.1073 21.2408 15.5028C22.1525 14.8984 23.2219 14.5757 24.3158 14.5752H24.3458ZM40.3458 9.30515L37.4958 8.21515C37.3738 8.16376 37.2633 8.08868 37.1706 7.99427C37.078 7.89986 37.0049 7.78799 36.9558 7.66515L35.8658 4.82515C35.7913 4.64902 35.6679 4.49794 35.5101 4.38982C35.3524 4.2817 35.1669 4.22108 34.9758 4.21515C34.8511 4.21506 34.7277 4.23977 34.6126 4.28784C34.4976 4.33591 34.3933 4.40638 34.3058 4.49515L30.8358 7.99515C30.7124 8.12654 30.6268 8.28883 30.5881 8.46486C30.5494 8.64089 30.5589 8.82411 30.6158 8.99515L31.5358 11.3852L25.5358 17.3852C25.1514 17.2289 24.7407 17.1474 24.3258 17.1452C23.6337 17.148 22.9608 17.3731 22.4063 17.7872C21.8518 18.2014 21.445 18.7827 21.2458 19.4455C21.0466 20.1083 21.0656 20.8176 21.2999 21.4688C21.5343 22.12 21.9716 22.6787 22.5474 23.0626C23.1233 23.4466 23.8072 23.6353 24.4985 23.6012C25.1898 23.567 25.8518 23.3118 26.387 22.873C26.9222 22.4342 27.3023 21.8351 27.4713 21.1639C27.6403 20.4928 27.5893 19.7851 27.3258 19.1452L33.0958 13.3852L36.1958 14.5752C36.3042 14.6181 36.4192 14.6418 36.5358 14.6452C36.7863 14.6391 37.0254 14.5391 37.2058 14.3652L40.6958 10.8752C40.7987 10.7577 40.8726 10.6178 40.9117 10.4666C40.9508 10.3154 40.954 10.1572 40.9209 10.0046C40.8879 9.85197 40.8195 9.70922 40.7214 9.58776C40.6232 9.46631 40.498 9.36952 40.3558 9.30515H40.3458Z" fill="#FD7A1E"/>
</svg>
