<svg width="21" height="20" viewBox="0 0 21 20" fill="none" xmlns="http://www.w3.org/2000/svg">
<path d="M19.49 2.73011L15 0.170108C14.848 0.0823393 14.6755 0.0361328 14.5 0.0361328C14.3245 0.0361328 14.152 0.0823393 14 0.170108L10 2.45011L6 0.170108C5.84798 0.0823393 5.67554 0.0361328 5.5 0.0361328C5.32446 0.0361328 5.15202 0.0823393 5 0.170108L0.51 2.73011C0.355534 2.81693 0.226912 2.94324 0.1373 3.09611C0.0476888 3.24898 0.000305357 3.42291 0 3.60011V8.72011C0.000305357 8.8973 0.0476888 9.07124 0.1373 9.2241C0.226912 9.37697 0.355534 9.50328 0.51 9.59011L4.51 11.8601V16.4001C4.51031 16.5773 4.55769 16.7512 4.6473 16.9041C4.73691 17.057 4.86553 17.1833 5.02 17.2701L9.52 19.8301C9.67202 19.9179 9.84446 19.9641 10.02 19.9641C10.1955 19.9641 10.368 19.9179 10.52 19.8301L15 17.2701C15.1545 17.1833 15.2831 17.057 15.3727 16.9041C15.4623 16.7512 15.5097 16.5773 15.51 16.4001V11.8601L19.51 9.59011C19.6645 9.50328 19.7931 9.37697 19.8827 9.2241C19.9723 9.07124 20.0197 8.8973 20.02 8.72011V3.60011C20.0177 3.42091 19.9673 3.24561 19.8741 3.09256C19.7809 2.93951 19.6482 2.81432 19.49 2.73011ZM2 8.14011V4.14011L5.5 2.14011L9 4.14011V8.14011L5.5 10.1401L2 8.14011ZM13.5 15.8201L10 17.8201L6.5 15.8201V11.8201L10 9.82011L13.5 11.8201V15.8201ZM18 8.14011L14.5 10.1401L11 8.14011V4.14011L14.5 2.14011L18 4.14011V8.14011Z" fill="url(#paint0_linear_1034_5)"/>
<defs>
<linearGradient id="paint0_linear_1034_5" x1="10.01" y1="0.0361328" x2="10.01" y2="19.9641" gradientUnits="userSpaceOnUse">
<stop stop-color="#FD7A1E"/>
<stop offset="1" stop-color="#D88D59"/>
</linearGradient>
</defs>
</svg>
