<svg width="21" height="21" viewBox="0 0 21 21" fill="none" xmlns="http://www.w3.org/2000/svg">
<path d="M19.71 13.58L15.19 9.07001C15.2846 8.60938 15.3315 8.14024 15.33 7.67001C15.3297 6.38066 15.0043 5.1122 14.3839 3.98189C13.7636 2.85158 12.8683 1.89588 11.7809 1.20315C10.6935 0.510412 9.44893 0.102991 8.16235 0.0185453C6.87577 -0.0659009 5.58866 0.175352 4.42 0.720005C4.27194 0.787643 4.14262 0.890404 4.04329 1.01936C3.94396 1.14832 3.8776 1.29958 3.85 1.46001C3.8225 1.61839 3.83359 1.78107 3.88233 1.93426C3.93108 2.08745 4.01603 2.22663 4.13 2.34001L8.48 6.68001L6.68 8.48001L2.34 4.13001C2.22567 4.01781 2.08605 3.93472 1.93291 3.88773C1.77977 3.84075 1.61758 3.83124 1.46 3.86001C1.30058 3.8866 1.14998 3.95144 1.02111 4.04897C0.892228 4.1465 0.788909 4.27381 0.719999 4.42001C0.173524 5.59251 -0.0675196 6.88419 0.0192908 8.17487C0.106101 9.46556 0.517945 10.7133 1.21651 11.8021C1.91508 12.8908 2.87767 13.7852 4.01474 14.4021C5.15181 15.0189 6.42642 15.3381 7.72 15.33C8.19023 15.3315 8.65937 15.2846 9.12 15.19L13.63 19.71C13.723 19.8037 13.8336 19.8781 13.9554 19.9289C14.0773 19.9797 14.208 20.0058 14.34 20.0058C14.472 20.0058 14.6027 19.9797 14.7246 19.9289C14.8464 19.8781 14.957 19.8037 15.05 19.71C15.1437 19.617 15.2181 19.5064 15.2689 19.3846C15.3197 19.2627 15.3458 19.132 15.3458 19C15.3458 18.868 15.3197 18.7373 15.2689 18.6154C15.2181 18.4936 15.1437 18.383 15.05 18.29L10.15 13.39C10.0275 13.2684 9.8757 13.1805 9.70923 13.1349C9.54276 13.0894 9.36732 13.0877 9.2 13.13C8.71717 13.2593 8.21983 13.3265 7.72 13.33C6.97205 13.3366 6.23018 13.1951 5.53714 12.9138C4.8441 12.6324 4.21357 12.2167 3.68189 11.6906C3.15021 11.1645 2.72787 10.5384 2.43922 9.84836C2.15056 9.15832 2.00129 8.41798 2 7.67001C1.9987 7.33502 2.02546 7.00052 2.08 6.67001L6 10.6C6.09296 10.6937 6.20356 10.7681 6.32542 10.8189C6.44728 10.8697 6.57799 10.8958 6.71 10.8958C6.84201 10.8958 6.97272 10.8697 7.09458 10.8189C7.21643 10.7681 7.32704 10.6937 7.42 10.6L10.6 7.39001C10.7802 7.20354 10.881 6.95434 10.881 6.695C10.881 6.43567 10.7802 6.18647 10.6 6.00001L6.71 2.08001C7.04058 2.02602 7.37504 1.99926 7.71 2.00001C9.21204 2.00265 10.6517 2.6012 11.7128 3.66424C12.774 4.72729 13.37 6.16796 13.37 7.67001C13.3665 8.16983 13.2993 8.66718 13.17 9.15001C13.1277 9.31733 13.1294 9.49276 13.1749 9.65924C13.2205 9.82571 13.3084 9.97756 13.43 10.1L18.33 15C18.5183 15.1883 18.7737 15.2941 19.04 15.2941C19.3063 15.2941 19.5617 15.1883 19.75 15C19.9383 14.8117 20.0441 14.5563 20.0441 14.29C20.0441 14.0237 19.9383 13.7683 19.75 13.58H19.71Z" fill="url(#paint0_linear_1034_18)"/>
<defs>
<linearGradient id="paint0_linear_1034_18" x1="10.023" y1="0.0020752" x2="10.023" y2="20.0058" gradientUnits="userSpaceOnUse">
<stop stop-color="#FD7A1E"/>
<stop offset="1" stop-color="#D88D59"/>
</linearGradient>
</defs>
</svg>
