<svg width="48" height="48" viewBox="0 0 48 48" fill="none" xmlns="http://www.w3.org/2000/svg">
<path d="M22.08 13.4299H26.93C26.9974 13.4312 27.0643 13.419 27.1268 13.3938C27.1893 13.3687 27.2461 13.3311 27.2937 13.2835C27.3413 13.2359 27.3789 13.1791 27.404 13.1166C27.4292 13.0541 27.4414 12.9872 27.44 12.9199C27.11 8.03986 25.44 5.10986 24.5 5.10986C23.56 5.10986 21.9 8.03986 21.57 12.9199C21.5687 12.9872 21.5809 13.0541 21.6061 13.1166C21.6312 13.1791 21.6688 13.2359 21.7164 13.2835C21.764 13.3311 21.8208 13.3687 21.8833 13.3938C21.9458 13.419 22.0127 13.4312 22.08 13.4299ZM19.52 23.3299C19.6084 23.3772 19.7089 23.3968 19.8085 23.3863C19.9081 23.3758 20.0023 23.3356 20.0788 23.271C20.1553 23.2063 20.2107 23.1202 20.2376 23.0237C20.2646 22.9272 20.262 22.8248 20.2301 22.7299C19.5565 20.6621 19.1663 18.5125 19.07 16.3399C19.0649 16.2107 19.0099 16.0887 18.9167 15.9992C18.8235 15.9097 18.6993 15.8598 18.57 15.8599H15.13C15.0561 15.8587 14.9828 15.8739 14.9154 15.9044C14.848 15.935 14.7882 15.9801 14.7404 16.0365C14.6926 16.093 14.6579 16.1593 14.6388 16.2308C14.6197 16.3023 14.6167 16.3771 14.63 16.4499C14.9 17.8817 15.4769 19.2381 16.3211 20.4258C17.1652 21.6134 18.2565 22.6042 19.52 23.3299ZM15.13 13.3299H18.57C18.6976 13.3301 18.8204 13.2816 18.9134 13.1942C19.0064 13.1068 19.0624 12.9872 19.07 12.8599C19.1644 10.687 19.5547 8.53722 20.2301 6.46986C20.265 6.37432 20.2699 6.27041 20.2442 6.17199C20.2185 6.07357 20.1634 5.98534 20.0862 5.91905C20.0091 5.85277 19.9136 5.81159 19.8124 5.80101C19.7112 5.79043 19.6092 5.81097 19.52 5.85986C18.2562 6.58766 17.1649 7.58026 16.3208 8.76955C15.4767 9.95885 14.9 11.3167 14.63 12.7499C14.6133 12.8241 14.6137 12.9011 14.6312 12.9751C14.6487 13.0491 14.6828 13.1182 14.7311 13.177C14.7793 13.2358 14.8403 13.2828 14.9094 13.3145C14.9786 13.3462 15.054 13.3617 15.13 13.3599V13.3299ZM29.94 12.8599C29.9477 12.9872 30.0037 13.1068 30.0967 13.1942C30.1896 13.2816 30.3125 13.3301 30.44 13.3299H33.88C33.953 13.3308 34.0253 13.3158 34.0918 13.2858C34.1584 13.2558 34.2175 13.2116 34.2652 13.1564C34.3128 13.1011 34.3478 13.0361 34.3677 12.9658C34.3875 12.8956 34.3917 12.8219 34.38 12.7499C34.1095 11.3247 33.5355 9.97441 32.6969 8.79073C31.8583 7.60706 30.7749 6.61771 29.52 5.88986C29.4309 5.84097 29.3289 5.82044 29.2277 5.83102C29.1265 5.84159 29.031 5.88277 28.9539 5.94905C28.8767 6.01534 28.8216 6.10358 28.7959 6.202C28.7702 6.30041 28.7751 6.40432 28.81 6.49986C29.4752 8.56864 29.8554 10.7184 29.94 12.8899V12.8599ZM29.52 23.3299C30.7836 22.6042 31.8749 21.6134 32.719 20.4258C33.5632 19.2381 34.1401 17.8817 34.41 16.4499C34.4234 16.3771 34.4204 16.3023 34.4013 16.2308C34.3822 16.1593 34.3475 16.093 34.2997 16.0365C34.2519 15.9801 34.1921 15.935 34.1247 15.9044C34.0573 15.8739 33.984 15.8587 33.91 15.8599H30.47C30.3408 15.8598 30.2166 15.9097 30.1234 15.9992C30.0302 16.0887 29.9752 16.2107 29.97 16.3399C29.8738 18.5125 29.4836 20.6621 28.81 22.7299C28.7781 22.8248 28.7755 22.9272 28.8025 23.0237C28.8294 23.1202 28.8848 23.2063 28.9613 23.271C29.0378 23.3356 29.132 23.3758 29.2316 23.3863C29.3312 23.3968 29.4317 23.3772 29.52 23.3299ZM22.3401 38.1299C22.4719 38.1273 22.5975 38.0738 22.6908 37.9806C22.784 37.8874 22.8375 37.7617 22.8401 37.6299V34.6299C22.8387 33.0391 22.2056 31.514 21.08 30.3899L16.08 25.3899C15.851 25.1616 15.5768 24.9837 15.275 24.8676C14.9732 24.7516 14.6504 24.6999 14.3274 24.7159C14.0045 24.7319 13.6884 24.8153 13.3995 24.9606C13.1107 25.1059 12.8554 25.3101 12.6501 25.5599C12.2955 26.0313 12.1261 26.6163 12.1741 27.2043C12.222 27.7922 12.4838 28.3421 12.91 28.7499L15.45 31.2899C15.6901 31.5312 15.8244 31.858 15.8235 32.1984C15.8225 32.5388 15.6864 32.8648 15.445 33.1049C15.3255 33.2237 15.1838 33.3179 15.0279 33.3819C14.872 33.446 14.705 33.4787 14.5365 33.4783C14.1961 33.4773 13.8701 33.3412 13.63 33.0999L11.17 30.6299C10.2358 29.6977 9.68612 28.4484 9.63005 27.1299V21.1299C9.629 20.7811 9.555 20.4364 9.41279 20.118C9.27059 19.7995 9.06333 19.5143 8.80433 19.2808C8.54533 19.0472 8.24033 18.8704 7.90893 18.7618C7.57753 18.6531 7.22706 18.615 6.88005 18.6499C6.24841 18.7334 5.66973 19.0468 5.25463 19.5301C4.83954 20.0135 4.61717 20.6329 4.63005 21.2699V27.4399C4.63147 28.8571 5.13451 30.228 6.05004 31.3099L11.67 37.9599C11.717 38.0144 11.7754 38.0578 11.8411 38.0872C11.9068 38.1166 11.9781 38.1312 12.05 38.1299H22.3401ZM42.17 18.6299C41.823 18.595 41.4726 18.6331 41.1412 18.7418C40.8098 18.8504 40.5048 19.0272 40.2458 19.2608C39.9868 19.4943 39.7795 19.7795 39.6373 20.098C39.4951 20.4164 39.4211 20.7611 39.42 21.1099V27.1099C39.364 28.4284 38.8143 29.6777 37.88 30.6099L35.42 33.0799C35.18 33.3212 34.854 33.4573 34.5136 33.4583C34.1732 33.4592 33.8464 33.3249 33.6051 33.0849C33.3637 32.8448 33.2276 32.5188 33.2267 32.1784C33.2257 31.838 33.36 31.5112 33.6 31.2699L36.14 28.7299C36.5663 28.3221 36.8281 27.7722 36.876 27.1843C36.924 26.5963 36.7546 26.0113 36.4001 25.5399C36.1947 25.2901 35.9394 25.0859 35.6506 24.9406C35.3617 24.7953 35.0456 24.7119 34.7227 24.6959C34.3997 24.6799 34.0769 24.7316 33.7751 24.8476C33.4733 24.9637 33.1991 25.1416 32.97 25.3699L27.97 30.3699C26.8445 31.494 26.2114 33.0191 26.21 34.6099V37.6099C26.2126 37.7417 26.2661 37.8674 26.3593 37.9606C26.4525 38.0538 26.5782 38.1073 26.71 38.1099H36.9801C37.052 38.1112 37.1233 38.0966 37.189 38.0672C37.2547 38.0378 37.3131 37.9944 37.36 37.9399L42.9801 31.2899C43.8956 30.2081 44.3986 28.8371 44.4001 27.4199V21.2499C44.4104 20.6119 44.1859 19.9925 43.7691 19.5093C43.3524 19.0262 42.7726 18.7132 42.14 18.6299H42.17ZM22.6 40.8899H12.31C12.1774 40.8899 12.0503 40.9425 11.9565 41.0363C11.8627 41.1301 11.81 41.2573 11.81 41.3899V43.3899C11.81 43.5225 11.8627 43.6496 11.9565 43.7434C12.0503 43.8372 12.1774 43.8899 12.31 43.8899H22.57C22.7027 43.8899 22.8298 43.8372 22.9236 43.7434C23.0174 43.6496 23.07 43.5225 23.07 43.3899V41.3899C23.07 41.2573 23.0174 41.1301 22.9236 41.0363C22.8298 40.9425 22.7027 40.8899 22.57 40.8899H22.6ZM36.7301 40.8899H26.44C26.3074 40.8899 26.1803 40.9425 26.0865 41.0363C25.9927 41.1301 25.94 41.2573 25.94 41.3899V43.3899C25.94 43.5225 25.9927 43.6496 26.0865 43.7434C26.1803 43.8372 26.3074 43.8899 26.44 43.8899H36.7C36.8326 43.8899 36.9598 43.8372 37.0536 43.7434C37.1474 43.6496 37.2 43.5225 37.2 43.3899V41.3899C37.2 41.2573 37.1474 41.1301 37.0536 41.0363C36.9598 40.9425 36.8326 40.8899 36.7 40.8899H36.7301ZM26.93 15.7499H22.08C21.9448 15.7499 21.8151 15.8036 21.7194 15.8992C21.6238 15.9949 21.57 16.1246 21.57 16.2599C21.9 21.1499 23.57 24.0699 24.5 24.0699C25.43 24.0699 27.11 21.1499 27.44 16.2599C27.44 16.1246 27.3863 15.9949 27.2907 15.8992C27.195 15.8036 27.0653 15.7499 26.93 15.7499Z" fill="#FD7A1E"/>
</svg>
