<svg width="33" height="39" viewBox="0 0 33 39" fill="none" xmlns="http://www.w3.org/2000/svg">
<path d="M30.5 0.25H2.5C1.96957 0.25 1.46086 0.460714 1.08579 0.835786C0.710714 1.21086 0.5 1.71957 0.5 2.25V22.25C0.5 22.7804 0.710714 23.2891 1.08579 23.6642C1.46086 24.0393 1.96957 24.25 2.5 24.25H30.5C31.0304 24.25 31.5391 24.0393 31.9142 23.6642C32.2893 23.2891 32.5 22.7804 32.5 22.25V2.25C32.5 1.71957 32.2893 1.21086 31.9142 0.835786C31.5391 0.460714 31.0304 0.25 30.5 0.25ZM7 19C6.50726 18.9999 6.02553 18.8543 5.61532 18.5813C5.20511 18.3083 4.88471 17.9202 4.69437 17.4657C4.50404 17.0112 4.45225 16.5106 4.54551 16.0268C4.63878 15.543 4.87294 15.0975 5.21858 14.7463C5.56422 14.3951 6.00593 14.1539 6.48822 14.053C6.9705 13.9521 7.47186 13.9959 7.92932 14.179C8.38677 14.3621 8.77992 14.6763 9.05937 15.0821C9.33882 15.488 9.49212 15.9673 9.5 16.46C9.50531 16.7917 9.44456 17.1211 9.3213 17.429C9.19805 17.7369 9.01474 18.0173 8.78206 18.2537C8.54938 18.4901 8.27199 18.6778 7.96604 18.8059C7.66009 18.9341 7.3317 19 7 19ZM7 11C6.50726 10.9999 6.02553 10.8543 5.61532 10.5813C5.20511 10.3083 4.88471 9.92021 4.69437 9.46572C4.50404 9.01123 4.45225 8.51063 4.54551 8.0268C4.63878 7.54297 4.87294 7.09749 5.21858 6.74632C5.56422 6.39515 6.00593 6.15394 6.48822 6.05301C6.9705 5.95208 7.47186 5.99592 7.92932 6.17902C8.38677 6.36212 8.77992 6.67631 9.05937 7.08214C9.33882 7.48797 9.49212 7.96733 9.5 8.46C9.50531 8.79166 9.44456 9.12105 9.3213 9.429C9.19805 9.73694 9.01474 10.0173 8.78206 10.2537C8.54938 10.4901 8.27199 10.6778 7.96604 10.8059C7.66009 10.9341 7.3317 11 7 11ZM23 18.75H15C14.6685 18.75 14.3505 18.6183 14.1161 18.3839C13.8817 18.1495 13.75 17.8315 13.75 17.5C13.75 17.1685 13.8817 16.8505 14.1161 16.6161C14.3505 16.3817 14.6685 16.25 15 16.25H23C23.3315 16.25 23.6495 16.3817 23.8839 16.6161C24.1183 16.8505 24.25 17.1685 24.25 17.5C24.25 17.8315 24.1183 18.1495 23.8839 18.3839C23.6495 18.6183 23.3315 18.75 23 18.75ZM27 13.75H15C14.6685 13.75 14.3505 13.6183 14.1161 13.3839C13.8817 13.1495 13.75 12.8315 13.75 12.5C13.75 12.1685 13.8817 11.8505 14.1161 11.6161C14.3505 11.3817 14.6685 11.25 15 11.25H27C27.3315 11.25 27.6495 11.3817 27.8839 11.6161C28.1183 11.8505 28.25 12.1685 28.25 12.5C28.25 12.8315 28.1183 13.1495 27.8839 13.3839C27.6495 13.6183 27.3315 13.75 27 13.75ZM27 8.75H15C14.6685 8.75 14.3505 8.6183 14.1161 8.38388C13.8817 8.14946 13.75 7.83152 13.75 7.5C13.75 7.16848 13.8817 6.85054 14.1161 6.61612C14.3505 6.3817 14.6685 6.25 15 6.25H27C27.3315 6.25 27.6495 6.3817 27.8839 6.61612C28.1183 6.85054 28.25 7.16848 28.25 7.5C28.25 7.83152 28.1183 8.14946 27.8839 8.38388C27.6495 8.6183 27.3315 8.75 27 8.75ZM18 29.46V28.07C18 27.6722 17.842 27.2906 17.5607 27.0093C17.2794 26.728 16.8978 26.57 16.5 26.57C16.1022 26.57 15.7206 26.728 15.4393 27.0093C15.158 27.2906 15 27.6722 15 28.07V29.46L8.73 35.73C8.58971 35.8686 8.47833 36.0336 8.40231 36.2156C8.32628 36.3976 8.28714 36.5928 8.28714 36.79C8.28714 36.9872 8.32628 37.1824 8.40231 37.3644C8.47833 37.5464 8.58971 37.7114 8.73 37.85C8.86744 37.9916 9.03235 38.1037 9.21461 38.1793C9.39688 38.255 9.59267 38.2927 9.79 38.29C9.98708 38.2909 10.1824 38.2525 10.3644 38.1769C10.5464 38.1014 10.7115 37.9902 10.85 37.85L15 33.66V37.25C15 37.6478 15.158 38.0294 15.4393 38.3107C15.7206 38.592 16.1022 38.75 16.5 38.75C16.8978 38.75 17.2794 38.592 17.5607 38.3107C17.842 38.0294 18 37.6478 18 37.25V33.66L22.15 37.81C22.2885 37.9502 22.4536 38.0614 22.6356 38.1369C22.8176 38.2125 23.0129 38.2509 23.21 38.25C23.4073 38.2527 23.6031 38.215 23.7854 38.1393C23.9677 38.0637 24.1326 37.9516 24.27 37.81C24.4103 37.6714 24.5217 37.5064 24.5977 37.3244C24.6737 37.1424 24.7129 36.9472 24.7129 36.75C24.7129 36.5528 24.6737 36.3576 24.5977 36.1756C24.5217 35.9936 24.4103 35.8286 24.27 35.69L18 29.46Z" fill="#FD7A1E"/>
</svg>
