<svg width="246" height="225" viewBox="0 0 246 225" fill="none" xmlns="http://www.w3.org/2000/svg">
<g clip-path="url(#clip0_14_3573)">
<path d="M246 140.606L245.962 154.151C245.91 172.255 234.004 190.331 210.222 204.145C162.353 231.949 84.4902 231.954 36.3004 204.145C12.0558 190.155 -0.0516119 171.792 2.78713e-07 153.456L0.0384349 139.911C-0.0131773 158.247 12.0943 176.61 36.3388 190.601C84.5286 218.409 162.391 218.404 210.261 190.601C234.042 176.786 245.948 158.71 246 140.606Z" fill="#A0A4A8"/>
<path d="M209.694 89.9101C257.883 117.718 258.13 162.795 210.261 190.6C162.391 218.404 84.5286 218.408 36.3388 190.6C-11.851 162.791 -12.0888 117.718 35.7788 89.9139C83.6463 62.1094 161.511 62.1061 209.694 89.9101Z" fill="#DADFE6"/>
<path d="M147.805 144.352L142.969 144.809C144.235 149.195 141.777 153.679 136.399 156.802C131.007 159.934 123.263 161.376 115.684 160.658L114.903 163.463C124.041 164.332 133.378 162.589 139.881 158.812C146.37 155.043 149.337 149.64 147.805 144.352Z" fill="#D2466F"/>
<path d="M165.163 143.16L160.313 143.576C162.296 151.126 158.091 158.55 148.79 163.953C139.489 169.355 126.68 171.813 113.632 170.69L112.918 173.504C127.307 174.741 142.011 171.919 152.269 165.962C162.526 160.004 167.345 151.486 165.161 143.16H165.163Z" fill="#D2466F"/>
<path d="M127.646 144.361L116.203 145.157L114.901 151.797L119.769 152.131L120.647 147.713L128.248 147.182L127.646 144.361Z" fill="#D2466F"/>
<path d="M221.956 139.76C221.762 139.76 221.571 139.709 221.402 139.611L151.671 99.3743L112.097 121.134C111.97 121.204 111.83 121.248 111.685 121.264C111.54 121.28 111.394 121.268 111.254 121.227C111.114 121.187 110.984 121.119 110.87 121.028C110.757 120.937 110.662 120.825 110.592 120.697C110.522 120.57 110.477 120.43 110.461 120.285C110.445 120.141 110.458 119.994 110.499 119.855C110.539 119.715 110.607 119.585 110.698 119.471C110.789 119.358 110.901 119.263 111.029 119.193L151.15 97.132C151.317 97.0399 151.505 96.9926 151.696 96.9945C151.886 96.9964 152.073 97.0476 152.238 97.143L220.847 136.734V41.8549C220.843 41.7074 220.87 41.5607 220.924 41.4234C220.978 41.2861 221.059 41.1611 221.162 41.0556C221.266 40.9501 221.389 40.8662 221.525 40.809C221.661 40.7518 221.807 40.7223 221.955 40.7223C222.103 40.7223 222.249 40.7518 222.385 40.809C222.521 40.8662 222.644 40.9501 222.747 41.0556C222.851 41.1611 222.932 41.2861 222.986 41.4234C223.04 41.5607 223.066 41.7074 223.063 41.8549V138.652C223.063 138.798 223.035 138.942 222.979 139.076C222.923 139.211 222.842 139.333 222.739 139.436C222.636 139.538 222.513 139.62 222.379 139.676C222.244 139.731 222.1 139.76 221.955 139.76H221.956Z" fill="#D2466F"/>
<path d="M117.5 117.902L117.489 121.514C117.489 122.034 117.145 122.556 116.445 122.965L84.3914 141.575C83.0061 142.384 80.756 142.384 79.3488 141.575L64.6739 133.101C63.9755 132.702 63.6208 132.168 63.6208 131.639L63.6318 128.039C63.6318 128.559 63.9865 129.091 64.6849 129.49L79.3592 137.963C80.767 138.772 83.0165 138.772 84.4024 137.963L116.457 119.354C117.154 118.955 117.5 118.423 117.5 117.902Z" fill="#766AB8"/>
<path d="M117.5 117.902C117.5 118.423 117.156 118.955 116.457 119.354L84.4023 137.963C83.0165 138.772 80.767 138.772 79.3592 137.963L64.6848 129.489C63.9864 129.09 63.6317 128.556 63.6317 128.038C63.6317 127.506 63.9864 126.975 64.6749 126.576L79.5047 117.958L83.9521 115.378L96.7201 107.97C96.8771 107.881 97.04 107.803 97.2077 107.737C98.6045 107.172 100.533 107.25 101.765 107.957L116.45 116.431C117.143 116.839 117.5 117.371 117.5 117.902Z" fill="#A399FF"/>
<path d="M97.2027 107.672L97.1642 121.218L83.912 128.915L83.9499 115.37L97.2027 107.672Z" fill="#8E86DB"/>
<path d="M83.9499 115.37L83.912 128.915L79.4821 126.359L79.5206 112.814L83.9499 115.37Z" fill="#766AB8"/>
<path d="M97.2027 107.672L83.9499 115.37L79.5206 112.814L92.7728 105.116L97.2027 107.672Z" fill="#4D4D4D"/>
<path d="M30.0602 49.2212L57.3587 132.17C57.4092 132.318 57.4684 132.462 57.536 132.602C57.6573 132.857 57.8101 133.095 57.9907 133.311C58.1642 133.521 58.3744 133.698 58.6111 133.832C58.7164 133.904 58.8324 133.96 58.9548 133.997C58.9632 133.998 58.9711 134.002 58.9768 134.008C59.075 134.042 59.1748 134.072 59.276 134.096C59.3085 134.105 59.3423 134.109 59.3759 134.107C59.4453 134.12 59.5156 134.128 59.5862 134.13L53.2248 133.863C52.2716 133.831 51.3958 133.1 50.9967 131.903L23.6982 48.955C23.1442 47.2824 23.7531 45.3106 25.0506 44.5577L89.6207 7.29218C89.9638 7.09402 90.355 6.99433 90.7512 7.00407L97.0243 7.27023C96.657 7.27143 96.2968 7.37091 95.981 7.55834L31.4109 44.8233C30.1157 45.5767 29.5062 47.5485 30.0602 49.2212Z" fill="#A399FF"/>
<path d="M125.288 96.5892L60.7184 133.843C60.3156 134.084 59.8418 134.178 59.3776 134.109C59.3439 134.111 59.3101 134.107 59.2776 134.098C59.1765 134.073 59.0766 134.044 58.9784 134.009C58.9727 134.003 58.9649 133.999 58.9564 133.998C58.8368 133.955 58.7217 133.9 58.6127 133.834C58.376 133.699 58.1658 133.523 57.9923 133.313C57.8117 133.097 57.659 132.858 57.5377 132.604C57.47 132.464 57.4108 132.319 57.3603 132.172L30.0602 49.2212C29.5062 47.5485 30.1151 45.5767 31.4126 44.8232L95.9826 7.56106C96.2984 7.37363 96.6586 7.27415 97.0259 7.27295H97.0484C98.0235 7.28392 98.9322 8.0149 99.3424 9.24472L126.641 92.194C127.195 93.8639 126.585 95.8357 125.288 96.5892Z" fill="#766AB8"/>
<path d="M96.3945 12.8392L122.617 92.5161L60.5993 128.303L34.377 48.6263L96.3945 12.8392Z" fill="#422561"/>
<path d="M155.487 95.889C153.378 94.6718 149.95 94.6718 147.855 95.889C145.76 97.1062 145.769 99.0901 147.88 100.307C149.991 101.524 153.41 101.528 155.512 100.307C157.614 99.0868 157.603 97.1095 155.487 95.889Z" fill="#D2466F"/>
<path d="M51.8439 57.6406L47.4277 60.1892L63.0882 107.773L67.5038 105.225L67.2704 104.516L63.4072 106.746L48.2134 60.5793L52.0772 58.3502L51.8439 57.6406Z" fill="white"/>
<path d="M93.9056 33.3691L89.4828 35.921L89.7162 36.6305L93.5871 34.3965L108.78 80.5626L104.91 82.7961L105.143 83.5051L109.566 80.9533L93.9056 33.3691Z" fill="white"/>
<path d="M81.5818 79.9442C77.5555 82.2678 72.9066 79.9541 71.2012 74.7813C69.4958 69.6085 71.3857 63.5214 75.412 61.1978C79.4383 58.8743 84.0872 61.188 85.7926 66.3613C87.498 71.5347 85.601 77.6251 81.5818 79.9442ZM75.1786 60.4888C70.8481 62.988 68.8182 69.5355 70.6494 75.0996C72.4772 80.6543 77.4841 83.1524 81.8152 80.6532C86.1462 78.1541 88.1728 71.5983 86.3444 66.0425C84.5133 60.4789 79.5025 57.994 75.1786 60.4888Z" fill="white"/>
<path d="M51.9416 45.8138L45.2342 49.6849C44.4205 50.1547 44.0405 51.3795 44.3843 52.4255C44.728 53.4715 45.6647 53.9363 46.4789 53.4682L53.1869 49.5971C54.0105 49.1235 54.3877 47.8959 54.044 46.8532C53.7003 45.8105 52.7652 45.3402 51.9416 45.8138Z" fill="#D2466F"/>
<path d="M91.0604 23.2408L88.7394 24.5799L89.9842 28.3621L92.3051 27.023L91.0604 23.2408Z" fill="#A399FF"/>
<path d="M87.3882 25.3602L85.0739 26.6954L86.3186 30.4776L88.6324 29.1419L87.3882 25.3602Z" fill="#A399FF"/>
<path d="M83.7155 27.4796L81.4012 28.8148L82.6459 32.5964L84.9602 31.2613L83.7155 27.4796Z" fill="#A399FF"/>
<path d="M74.3479 108.545L64.6887 114.119L65.9334 117.902L75.5926 112.328L74.3479 108.545Z" fill="white"/>
<path d="M111.987 86.8259L102.328 92.3999L103.572 96.1815L113.232 90.6081L111.987 86.8259Z" fill="white"/>
<path d="M190.134 55.182L191.524 55.9893C190.717 55.5206 189.602 55.5865 188.368 56.2971L186.977 55.4893C188.209 54.7787 189.327 54.7133 190.134 55.182Z" fill="#999999"/>
<path d="M185.237 66.7904L183.846 65.9826C183.052 65.521 182.559 64.5404 182.555 63.1454C182.547 60.3334 184.532 56.9025 186.977 55.4894L188.368 56.2972C185.92 57.7103 183.937 61.1412 183.945 63.9532C183.95 65.3482 184.442 66.3288 185.237 66.7904Z" fill="#999999"/>
<path d="M188.368 56.2971C190.816 54.8846 192.811 56.0228 192.819 58.8325C192.827 61.6423 190.845 65.0677 188.396 66.4803C185.948 67.8929 183.953 66.7651 183.945 63.9532C183.937 61.1412 185.92 57.7103 188.368 56.2971Z" fill="#333333"/>
<path d="M217.226 38.4639L219.009 37.4267C220.042 36.8264 221.474 36.912 223.053 37.8224L221.269 38.8585C219.691 37.9486 218.259 37.8658 217.226 38.4639Z" fill="#333333"/>
<path d="M227.063 51.2801L225.282 52.3157C226.303 51.7224 226.936 50.4608 226.941 48.6685C226.951 45.0603 224.412 40.6722 221.27 38.8596L223.053 37.8235C226.195 39.6345 228.735 44.0247 228.724 47.6329C228.718 49.4253 228.085 50.6869 227.063 51.2801Z" fill="#333333"/>
<path d="M221.269 38.8596C224.411 40.6706 226.95 45.0608 226.94 48.6685C226.93 52.2762 224.374 53.7327 221.23 51.9195C218.086 50.1063 215.558 45.7133 215.569 42.1062C215.579 38.4991 218.134 37.0503 221.269 38.8596Z" fill="#B3B3B3"/>
<path d="M188.323 61.4311L219.571 43.2818C219.99 43.0387 220.569 43.0721 221.207 43.4398L189.96 61.5886C189.321 61.2209 188.742 61.1891 188.323 61.4311Z" fill="#808080"/>
<path d="M222.834 48.8848L191.588 67.0341C192 66.7943 192.255 66.2861 192.257 65.5612C192.262 64.1063 191.232 62.3234 189.958 61.5885L221.204 43.4398C222.478 44.1752 223.51 45.9576 223.504 47.4124C223.501 48.1374 223.246 48.6455 222.834 48.8848Z" fill="#808080"/>
<path d="M189.958 61.5886C191.232 62.324 192.264 64.1064 192.258 65.5613C192.251 67.0161 191.217 67.6066 189.943 66.8712C188.669 66.1358 187.647 64.366 187.651 62.9029C187.655 61.4481 188.691 60.8598 189.958 61.5886Z" fill="#B3B3B3"/>
<path d="M194.087 27.9811L193.981 65.0046C193.981 65.4815 193.665 65.9573 193.037 66.3217C191.771 67.0565 189.726 67.0565 188.452 66.3217C187.811 65.9518 187.491 65.4678 187.492 64.9849L187.597 27.9619C187.597 28.4448 187.916 28.9283 188.557 29.2982C189.831 30.033 191.876 30.033 193.142 29.2982C193.77 28.9344 194.085 28.458 194.087 27.9811Z" fill="#808080"/>
<path d="M194.076 27.9797C194.079 26.9431 192.63 26.0988 190.84 26.0938C189.049 26.0888 187.596 26.925 187.593 27.9616C187.59 28.9981 189.039 29.8424 190.829 29.8474C192.62 29.8524 194.073 29.0162 194.076 27.9797Z" fill="#B3B3B3"/>
<path d="M175.855 46.4504L222.724 19.2271L222.691 31.0846L175.822 58.3079L175.855 46.4504Z" fill="#333333"/>
<path d="M158.225 27.9191L205.094 0.695781C206.971 -0.394097 209.571 -0.237146 212.441 1.41633L165.571 28.6391C162.701 26.9829 160.101 26.8287 158.225 27.9191Z" fill="#333333"/>
<path d="M165.571 28.6392L212.441 1.41638C218.137 4.70303 222.743 12.6768 222.724 19.2271L175.855 46.4504C175.874 39.9002 171.268 31.9264 165.571 28.6392Z" fill="#333333"/>
<path d="M165.571 28.6392C171.268 31.9263 175.874 39.9001 175.855 46.4504L175.821 58.3079L155.18 46.3993L155.213 34.5418C155.232 27.9877 159.868 25.3481 165.571 28.6392Z" fill="#666666"/>
<path d="M162.185 23.1004L152.321 28.8384C152.321 28.564 152.332 28.2847 152.354 28.0185C152.366 27.7749 152.388 27.5422 152.421 27.3095C152.454 27.09 152.488 26.8776 152.53 26.6669C152.553 26.5451 152.575 26.4232 152.608 26.3014C152.728 25.8015 152.898 25.3152 153.118 24.8504C153.172 24.7242 153.235 24.6021 153.306 24.485C153.42 24.2661 153.553 24.0583 153.705 23.8643C154.093 23.3204 154.587 22.8607 155.157 22.5132C156.954 21.4271 159.437 21.549 162.185 23.1004Z" fill="#666666"/>
<path d="M204.213 22.5905L172.972 40.7469C172.983 34.2109 168.549 26.2794 162.952 22.6679C162.733 22.5241 162.509 22.3935 162.287 22.258C160.791 21.3942 159.361 20.9288 158.064 20.818C157.865 20.807 157.677 20.796 157.488 20.796C157.277 20.7955 157.066 20.8064 156.856 20.8289H156.845C156.637 20.8506 156.429 20.8839 156.224 20.9288C156.047 20.9599 155.872 21.0081 155.703 21.0726C155.342 21.1745 154.995 21.3236 154.673 21.516L185.914 3.37058C187.866 2.24064 190.559 2.39595 193.529 4.11583C199.437 7.51388 204.224 15.8109 204.213 22.5905Z" fill="#808080"/>
<path d="M172.969 40.747L172.182 40.2926C172.193 34.0002 167.749 26.3124 162.285 23.1552C162.252 23.1333 162.219 23.1223 162.185 23.1004C159.437 21.549 156.954 21.4271 155.157 22.5132C154.587 22.8607 154.093 23.3203 153.705 23.8643C153.553 24.0583 153.42 24.2661 153.306 24.4849C153.237 24.6033 153.174 24.7253 153.118 24.8504C152.898 25.3152 152.728 25.8015 152.608 26.3014C152.575 26.4232 152.554 26.5451 152.531 26.6669C152.487 26.8776 152.453 27.0878 152.421 27.3095C152.388 27.5422 152.366 27.7749 152.354 28.0185C152.332 28.2847 152.321 28.5613 152.321 28.8384L151.535 28.384C151.545 25.0052 152.742 22.635 154.671 21.516C154.993 21.3236 155.34 21.1745 155.701 21.0726C155.87 21.0081 156.044 20.96 156.222 20.9288C156.427 20.884 156.635 20.8506 156.843 20.829H156.854C157.064 20.8065 157.275 20.7955 157.486 20.796C157.675 20.796 157.863 20.807 158.062 20.818C159.359 20.9277 160.789 21.3942 162.285 22.258C162.505 22.3913 162.728 22.5242 162.95 22.6679C168.547 26.2795 172.98 34.211 172.969 40.747Z" fill="#B3B3B3"/>
<path d="M194.654 57.8414L196.045 58.6487C195.237 58.18 194.119 58.247 192.887 58.9588L191.496 58.151C192.729 57.4403 193.847 57.3728 194.654 57.8414Z" fill="#999999"/>
<path d="M189.757 69.452L188.367 68.6447C187.572 68.1832 187.079 67.2025 187.075 65.8075C187.067 62.9873 189.049 59.5646 191.497 58.1515L192.888 58.9593C190.439 60.3719 188.458 63.7951 188.466 66.6153C188.468 68.0103 188.961 68.9904 189.757 69.452Z" fill="#999999"/>
<path d="M192.887 58.9592C195.335 57.5461 197.33 58.6744 197.338 61.4946C197.346 64.3148 195.361 67.7293 192.915 69.1425C190.469 70.5556 188.472 69.4273 188.464 66.618C188.456 63.7951 190.438 60.3718 192.887 58.9592Z" fill="#333333"/>
<path d="M190.922 67.5355C190.899 67.5363 190.877 67.5345 190.855 67.5301C190.832 67.4971 190.683 67.22 190.681 66.6092C190.675 64.5787 192.224 61.9001 193.994 60.8777C194.483 60.5967 194.776 60.5654 194.879 60.5654C194.97 60.6044 195.119 60.8843 195.121 61.4984C195.126 63.525 193.578 66.1993 191.807 67.2216C191.319 67.5054 191.025 67.5355 190.922 67.5355Z" fill="#B3B3B3"/>
<path d="M169.826 49.1597L171.046 48.4512C171.337 48.2817 171.741 48.3053 172.189 48.5637L170.969 49.2722C170.523 49.0137 170.12 48.9901 169.826 49.1597Z" fill="#AE3A5C"/>
<path d="M173.316 52.3635L172.096 53.072C172.385 52.9046 172.564 52.5468 172.565 52.0402C172.568 51.0239 171.856 49.7826 170.973 49.2722L172.192 48.5637C173.077 49.0741 173.79 50.3154 173.785 51.3318C173.784 51.8383 173.605 52.1956 173.316 52.3635Z" fill="#AE3A5C"/>
<path d="M170.971 49.2723C171.856 49.7826 172.568 51.024 172.564 52.0403C172.559 53.0566 171.844 53.4726 170.959 52.9623C170.075 52.4519 169.355 51.2062 169.358 50.1904C169.361 49.1746 170.08 48.7581 170.971 49.2723Z" fill="#FF6694"/>
<path d="M214.633 25.9342L184.233 43.4766C183.433 43.9381 182.792 45.0494 182.794 45.9598C182.796 46.8702 183.443 47.2461 184.242 46.783L214.642 29.2406C215.435 28.7829 216.084 27.6678 216.081 26.7497C216.079 25.8316 215.422 25.4754 214.633 25.9326V25.9342Z" fill="#766AB8"/>
<path d="M167.58 45.6618C169.923 43.3202 169.923 39.5238 167.58 37.1822C165.237 34.8406 161.439 34.8406 159.096 37.1822C156.753 39.5238 156.753 43.3202 159.096 45.6618C161.439 48.0034 165.237 48.0034 167.58 45.6618Z" fill="#766AB8"/>
<path d="M164.613 47.9031L164.568 47.936C164.512 47.9722 164.453 48.002 164.391 48.025C164.468 47.9908 164.542 47.95 164.613 47.9031Z" fill="#808080"/>
<path d="M161.199 35.9281C161.188 35.9281 161.188 35.9281 161.188 35.9391C161.164 35.9182 161.138 35.8998 161.11 35.8842C161.136 35.9053 161.167 35.9203 161.199 35.9281Z" fill="#808080"/>
<path d="M157.829 37.4899C157.658 37.6787 157.509 37.8871 157.386 38.1105C157.496 37.8791 157.646 37.6689 157.829 37.4899Z" fill="#808080"/>
<path d="M170.886 43.5731C170.875 45.3347 170.254 46.5865 169.246 47.1731L165.643 49.2448C165.686 49.2145 165.727 49.1811 165.765 49.1449C165.886 49.0562 165.994 48.9519 166.087 48.8348C166.109 48.8239 166.109 48.8239 166.109 48.8129C166.315 48.5825 166.483 48.3207 166.607 48.0375C166.76 47.7127 166.871 47.3704 166.94 47.0184C166.979 46.8543 167.004 46.6875 167.018 46.5195C167.03 46.4428 167.038 46.3652 167.04 46.2874C167.049 46.1962 167.053 46.1046 167.051 46.013C167.06 45.9402 167.064 45.8668 167.062 45.7935C167.062 42.2264 164.546 37.873 161.443 36.0801C161.401 36.0604 161.36 36.0382 161.321 36.0137C161.276 35.9946 161.235 35.9685 161.199 35.9363C161.166 35.9284 161.136 35.9132 161.11 35.8919C160.988 35.837 160.866 35.7821 160.733 35.7272V35.7163C160.633 35.6828 160.545 35.6389 160.456 35.6065C159.78 35.3628 159.148 35.2772 158.572 35.3321C158.513 35.3347 158.453 35.342 158.395 35.3541C158.312 35.3669 158.231 35.3852 158.151 35.4089C158.135 35.4073 158.12 35.4112 158.107 35.4199C157.992 35.4446 157.881 35.4814 157.774 35.5297C157.729 35.5406 157.697 35.5626 157.652 35.5741L161.265 33.469C162.285 32.8708 163.704 32.9597 165.267 33.857C168.381 35.64 170.897 40.0061 170.886 43.5731Z" fill="#333333"/>
<path d="M157.774 35.5182C157.719 35.5401 157.664 35.5627 157.619 35.5846C157.63 35.5736 157.641 35.5736 157.652 35.5627C157.697 35.5511 157.729 35.5292 157.774 35.5182Z" fill="#808080"/>
<path d="M166.607 48.0359C166.483 48.3194 166.315 48.5814 166.109 48.812C166.311 48.5786 166.479 48.3172 166.607 48.0359Z" fill="#808080"/>
<path d="M166.109 48.8112C166.315 48.5808 166.483 48.3191 166.607 48.0358C166.479 48.3169 166.311 48.578 166.109 48.8112ZM164.39 48.0248C164.453 48.0019 164.512 47.9721 164.568 47.9359L164.612 47.903C164.542 47.9499 164.468 47.9906 164.39 48.0248ZM157.652 35.5609C157.641 35.5719 157.63 35.5719 157.619 35.5829C157.663 35.5609 157.719 35.5384 157.774 35.5165C157.73 35.5291 157.697 35.5511 157.652 35.5609ZM157.386 38.1084C157.509 37.8851 157.658 37.677 157.83 37.4882C157.646 37.6676 157.496 37.8782 157.386 38.11V38.1084Z" fill="#808080"/>
<path d="M161.443 36.0719C161.401 36.0522 161.36 36.03 161.321 36.0055L161.188 35.9391C161.164 35.9182 161.138 35.8998 161.11 35.8842C160.988 35.8293 160.866 35.7744 160.733 35.7195C160.644 35.6751 160.545 35.6422 160.456 35.5977C159.78 35.3541 159.148 35.2684 158.572 35.3233C158.513 35.3259 158.453 35.3332 158.395 35.3453C158.312 35.3581 158.231 35.3764 158.151 35.4002C158.135 35.3985 158.12 35.4024 158.107 35.4111C157.992 35.4359 157.881 35.4726 157.774 35.5209C157.719 35.5428 157.664 35.5653 157.619 35.5873C157.565 35.6125 157.513 35.6421 157.464 35.6756C156.433 36.2519 155.801 37.5036 155.79 39.2872C155.779 42.8542 158.295 47.2077 161.409 49.0006C162.972 49.8978 164.391 49.9884 165.41 49.3886C165.451 49.3746 165.489 49.3519 165.52 49.3222C165.565 49.3029 165.606 49.2766 165.642 49.2442C165.685 49.214 165.726 49.1806 165.764 49.1444C165.877 49.0468 165.984 48.9433 166.086 48.8343C166.108 48.8233 166.108 48.8233 166.108 48.8123C166.31 48.5791 166.478 48.318 166.606 48.0369C166.759 47.7121 166.87 47.3699 166.939 47.0178C166.977 46.8538 167.003 46.687 167.016 46.519C167.029 46.4422 167.037 46.3647 167.039 46.2869C167.048 46.1957 167.052 46.1041 167.05 46.0125C167.059 45.9397 167.063 45.8663 167.061 45.793C167.062 42.2198 164.546 37.8658 161.443 36.0719ZM165.832 45.6986C165.71 46.7506 165.267 47.5041 164.613 47.903L164.568 47.9359C164.513 47.9721 164.453 48.0019 164.391 48.0248C164.32 48.0608 164.247 48.0904 164.171 48.1132C164.005 48.1669 163.835 48.2036 163.662 48.223C163.25 48.2639 162.835 48.2187 162.442 48.0901C162.083 47.9769 161.737 47.8245 161.412 47.6358C158.962 46.2183 156.978 42.784 156.989 39.9814C156.989 39.7888 157 39.5964 157.023 39.4052L157.056 39.1725C157.082 38.996 157.123 38.822 157.178 38.6522C157.211 38.5523 157.244 38.4525 157.278 38.3641C157.311 38.2758 157.355 38.1869 157.387 38.1089C157.497 37.8777 157.647 37.6677 157.83 37.4888C157.952 37.3632 158.09 37.2552 158.241 37.1678C158.928 36.7353 159.837 36.7134 160.856 37.1453C161.057 37.2302 161.254 37.3264 161.444 37.4334C163.893 38.8514 165.866 42.2857 165.866 45.0993C165.867 45.2996 165.855 45.4997 165.832 45.6986Z" fill="#B3B3B3"/>
<path d="M165.831 45.6986C165.709 46.7506 165.266 47.504 164.612 47.903C164.543 47.9498 164.469 47.9905 164.393 48.0248C164.322 48.0608 164.249 48.0904 164.173 48.1132C164.008 48.1669 163.837 48.2036 163.664 48.2229C163.252 48.2639 162.837 48.2187 162.444 48.0901C162.085 47.9768 161.739 47.8245 161.414 47.6358C158.964 46.2183 156.981 42.784 156.992 39.9813C156.991 39.7888 157.002 39.5963 157.025 39.4051L157.058 39.1724C157.084 38.996 157.125 38.822 157.18 38.6522C157.213 38.5523 157.246 38.4524 157.28 38.3641C157.313 38.2757 157.357 38.1868 157.39 38.1089C157.513 37.8856 157.661 37.6775 157.833 37.4888C157.954 37.3632 158.092 37.2551 158.243 37.1677C158.93 36.7353 159.839 36.7133 160.859 37.1452C160.826 37.3466 160.811 37.5504 160.814 37.7544C160.814 40.557 162.787 44.0023 165.236 45.4093C165.428 45.5188 165.627 45.6154 165.831 45.6986Z" fill="#333333"/>
</g>
<defs>
<clipPath id="clip0_14_3573">
<rect width="246" height="225" fill="white"/>
</clipPath>
</defs>
</svg>
