<svg width="182" height="64" viewBox="0 0 182 64" fill="none" xmlns="http://www.w3.org/2000/svg">
<path d="M74.448 19.32C74.2453 18.9467 73.952 18.664 73.568 18.472C73.1947 18.2693 72.752 18.168 72.24 18.168C71.3547 18.168 70.6453 18.4613 70.112 19.048C69.5787 19.624 69.312 20.3973 69.312 21.368C69.312 22.4027 69.5893 23.2133 70.144 23.8C70.7093 24.376 71.4827 24.664 72.464 24.664C73.136 24.664 73.7013 24.4933 74.16 24.152C74.6293 23.8107 74.9707 23.32 75.184 22.68H71.712V20.664H77.664V23.208C77.4613 23.8907 77.1147 24.5253 76.624 25.112C76.144 25.6987 75.5307 26.1733 74.784 26.536C74.0373 26.8987 73.1947 27.08 72.256 27.08C71.1467 27.08 70.1547 26.84 69.28 26.36C68.416 25.8693 67.7387 25.192 67.248 24.328C66.768 23.464 66.528 22.4773 66.528 21.368C66.528 20.2587 66.768 19.272 67.248 18.408C67.7387 17.5333 68.416 16.856 69.28 16.376C70.144 15.8853 71.1307 15.64 72.24 15.64C73.584 15.64 74.7147 15.9653 75.632 16.616C76.56 17.2667 77.1733 18.168 77.472 19.32H74.448ZM79.0035 18.616C79.0462 17.4747 79.4195 16.5947 80.1235 15.976C80.8275 15.3573 81.7822 15.048 82.9875 15.048C83.7875 15.048 84.4702 15.1867 85.0355 15.464C85.6115 15.7413 86.0435 16.12 86.3315 16.6C86.6302 17.08 86.7795 17.6187 86.7795 18.216C86.7795 18.92 86.6035 19.496 86.2515 19.944C85.8995 20.3813 85.4888 20.68 85.0195 20.84V20.904C85.6275 21.1067 86.1075 21.4427 86.4595 21.912C86.8115 22.3813 86.9875 22.984 86.9875 23.72C86.9875 24.3813 86.8328 24.968 86.5235 25.48C86.2248 25.9813 85.7822 26.376 85.1955 26.664C84.6195 26.952 83.9315 27.096 83.1315 27.096C81.8515 27.096 80.8275 26.7813 80.0595 26.152C79.3022 25.5227 78.9022 24.5733 78.8595 23.304H81.5155C81.5262 23.7733 81.6595 24.1467 81.9155 24.424C82.1715 24.6907 82.5448 24.824 83.0355 24.824C83.4515 24.824 83.7715 24.7067 83.9955 24.472C84.2302 24.2267 84.3475 23.9067 84.3475 23.512C84.3475 23 84.1822 22.632 83.8515 22.408C83.5315 22.1733 83.0142 22.056 82.2995 22.056H81.7875V19.832H82.2995C82.8435 19.832 83.2808 19.7413 83.6115 19.56C83.9528 19.368 84.1235 19.032 84.1235 18.552C84.1235 18.168 84.0168 17.8693 83.8035 17.656C83.5902 17.4427 83.2968 17.336 82.9235 17.336C82.5182 17.336 82.2142 17.4587 82.0115 17.704C81.8195 17.9493 81.7075 18.2533 81.6755 18.616H79.0035ZM96.3216 27.112C95.5003 27.112 94.7643 26.9787 94.1136 26.712C93.463 26.4453 92.9403 26.0507 92.5456 25.528C92.1616 25.0053 91.959 24.376 91.9376 23.64H94.8496C94.8923 24.056 95.0363 24.376 95.2816 24.6C95.527 24.8133 95.847 24.92 96.2416 24.92C96.647 24.92 96.967 24.8293 97.2016 24.648C97.4363 24.456 97.5536 24.1947 97.5536 23.864C97.5536 23.5867 97.4576 23.3573 97.2656 23.176C97.0843 22.9947 96.855 22.8453 96.5776 22.728C96.311 22.6107 95.927 22.4773 95.4256 22.328C94.7003 22.104 94.1083 21.88 93.6496 21.656C93.191 21.432 92.7963 21.1013 92.4656 20.664C92.135 20.2267 91.9696 19.656 91.9696 18.952C91.9696 17.9067 92.3483 17.0907 93.1056 16.504C93.863 15.9067 94.8496 15.608 96.0656 15.608C97.303 15.608 98.3003 15.9067 99.0576 16.504C99.815 17.0907 100.22 17.912 100.274 18.968H97.3136C97.2923 18.6053 97.159 18.3227 96.9136 18.12C96.6683 17.9067 96.3536 17.8 95.9696 17.8C95.639 17.8 95.3723 17.8907 95.1696 18.072C94.967 18.2427 94.8656 18.4933 94.8656 18.824C94.8656 19.1867 95.0363 19.4693 95.3776 19.672C95.719 19.8747 96.2523 20.0933 96.9776 20.328C97.703 20.5733 98.2896 20.808 98.7376 21.032C99.1963 21.256 99.591 21.5813 99.9216 22.008C100.252 22.4347 100.418 22.984 100.418 23.656C100.418 24.296 100.252 24.8773 99.9216 25.4C99.6016 25.9227 99.1323 26.3387 98.5136 26.648C97.895 26.9573 97.1643 27.112 96.3216 27.112ZM110.517 22.392C110.517 22.648 110.501 22.9147 110.469 23.192H104.277C104.32 23.7467 104.496 24.1733 104.805 24.472C105.125 24.76 105.515 24.904 105.973 24.904C106.656 24.904 107.131 24.616 107.397 24.04H110.309C110.16 24.6267 109.888 25.1547 109.493 25.624C109.109 26.0933 108.624 26.4613 108.037 26.728C107.451 26.9947 106.795 27.128 106.069 27.128C105.195 27.128 104.416 26.9413 103.733 26.568C103.051 26.1947 102.517 25.6613 102.133 24.968C101.749 24.2747 101.557 23.464 101.557 22.536C101.557 21.608 101.744 20.7973 102.117 20.104C102.501 19.4107 103.035 18.8773 103.717 18.504C104.4 18.1307 105.184 17.944 106.069 17.944C106.933 17.944 107.701 18.1253 108.373 18.488C109.045 18.8507 109.568 19.368 109.941 20.04C110.325 20.712 110.517 21.496 110.517 22.392ZM107.717 21.672C107.717 21.2027 107.557 20.8293 107.237 20.552C106.917 20.2747 106.517 20.136 106.037 20.136C105.579 20.136 105.189 20.2693 104.869 20.536C104.56 20.8027 104.368 21.1813 104.293 21.672H107.717ZM115.353 17.944C115.982 17.944 116.531 18.072 117.001 18.328C117.481 18.584 117.849 18.92 118.105 19.336V18.072H120.841V26.984C120.841 27.8053 120.675 28.5467 120.345 29.208C120.025 29.88 119.529 30.4133 118.857 30.808C118.195 31.2027 117.369 31.4 116.377 31.4C115.054 31.4 113.982 31.0853 113.161 30.456C112.339 29.8373 111.87 28.9947 111.753 27.928H114.457C114.542 28.2693 114.745 28.536 115.065 28.728C115.385 28.9307 115.779 29.032 116.249 29.032C116.814 29.032 117.262 28.8667 117.593 28.536C117.934 28.216 118.105 27.6987 118.105 26.984V25.72C117.838 26.136 117.47 26.4773 117.001 26.744C116.531 27 115.982 27.128 115.353 27.128C114.617 27.128 113.95 26.9413 113.353 26.568C112.755 26.184 112.281 25.6453 111.929 24.952C111.587 24.248 111.417 23.4373 111.417 22.52C111.417 21.6027 111.587 20.7973 111.929 20.104C112.281 19.4107 112.755 18.8773 113.353 18.504C113.95 18.1307 114.617 17.944 115.353 17.944ZM118.105 22.536C118.105 21.8533 117.913 21.3147 117.529 20.92C117.155 20.5253 116.697 20.328 116.153 20.328C115.609 20.328 115.145 20.5253 114.761 20.92C114.387 21.304 114.201 21.8373 114.201 22.52C114.201 23.2027 114.387 23.7467 114.761 24.152C115.145 24.5467 115.609 24.744 116.153 24.744C116.697 24.744 117.155 24.5467 117.529 24.152C117.913 23.7573 118.105 23.2187 118.105 22.536ZM131.636 18.072V27H128.9V25.784C128.623 26.1787 128.244 26.4987 127.764 26.744C127.295 26.9787 126.772 27.096 126.196 27.096C125.513 27.096 124.911 26.9467 124.388 26.648C123.865 26.3387 123.46 25.896 123.172 25.32C122.884 24.744 122.74 24.0667 122.74 23.288V18.072H125.46V22.92C125.46 23.5173 125.615 23.9813 125.924 24.312C126.233 24.6427 126.649 24.808 127.172 24.808C127.705 24.808 128.127 24.6427 128.436 24.312C128.745 23.9813 128.9 23.5173 128.9 22.92V18.072H131.636ZM136.337 19.56C136.657 19.0693 137.057 18.6853 137.537 18.408C138.017 18.12 138.551 17.976 139.137 17.976V20.872H138.385C137.703 20.872 137.191 21.0213 136.849 21.32C136.508 21.608 136.337 22.12 136.337 22.856V27H133.601V18.072H136.337V19.56ZM139.901 22.52C139.901 21.6027 140.072 20.7973 140.413 20.104C140.765 19.4107 141.24 18.8773 141.837 18.504C142.434 18.1307 143.101 17.944 143.837 17.944C144.466 17.944 145.016 18.072 145.485 18.328C145.965 18.584 146.333 18.92 146.589 19.336V18.072H149.325V27H146.589V25.736C146.322 26.152 145.949 26.488 145.469 26.744C145 27 144.45 27.128 143.821 27.128C143.096 27.128 142.434 26.9413 141.837 26.568C141.24 26.184 140.765 25.6453 140.413 24.952C140.072 24.248 139.901 23.4373 139.901 22.52ZM146.589 22.536C146.589 21.8533 146.397 21.3147 146.013 20.92C145.64 20.5253 145.181 20.328 144.637 20.328C144.093 20.328 143.629 20.5253 143.245 20.92C142.872 21.304 142.685 21.8373 142.685 22.52C142.685 23.2027 142.872 23.7467 143.245 24.152C143.629 24.5467 144.093 24.744 144.637 24.744C145.181 24.744 145.64 24.5467 146.013 24.152C146.397 23.7573 146.589 23.2187 146.589 22.536ZM156.745 17.976C157.79 17.976 158.622 18.3173 159.241 19C159.87 19.672 160.185 20.6 160.185 21.784V27H157.465V22.152C157.465 21.5547 157.31 21.0907 157.001 20.76C156.691 20.4293 156.275 20.264 155.753 20.264C155.23 20.264 154.814 20.4293 154.505 20.76C154.195 21.0907 154.041 21.5547 154.041 22.152V27H151.305V18.072H154.041V19.256C154.318 18.8613 154.691 18.552 155.161 18.328C155.63 18.0933 156.158 17.976 156.745 17.976ZM165.974 24.792C166.678 24.792 167.152 24.4507 167.398 23.768H170.31C170.107 24.6747 169.702 25.416 169.094 25.992C168.486 26.568 167.728 26.9253 166.822 27.064V27.656C167.376 27.656 167.862 27.8053 168.278 28.104C168.694 28.4133 168.902 28.872 168.902 29.48C168.902 30.088 168.683 30.5467 168.246 30.856C167.808 31.176 167.286 31.336 166.678 31.336H164.214V29.832H166.31C166.523 29.832 166.683 29.8 166.79 29.736C166.896 29.672 166.95 29.5653 166.95 29.416C166.95 29.2667 166.896 29.16 166.79 29.096C166.683 29.0427 166.523 29.016 166.31 29.016H165.174V27.064C164.075 26.8933 163.195 26.408 162.534 25.608C161.872 24.7973 161.542 23.7733 161.542 22.536C161.542 21.608 161.728 20.7973 162.102 20.104C162.486 19.4107 163.014 18.8773 163.686 18.504C164.368 18.1307 165.147 17.944 166.022 17.944C167.142 17.944 168.075 18.2373 168.822 18.824C169.579 19.4107 170.075 20.2373 170.31 21.304H167.398C167.152 20.6213 166.678 20.28 165.974 20.28C165.472 20.28 165.072 20.4773 164.774 20.872C164.475 21.256 164.326 21.8107 164.326 22.536C164.326 23.2613 164.475 23.8213 164.774 24.216C165.072 24.6 165.472 24.792 165.974 24.792ZM171.229 22.52C171.229 21.6027 171.4 20.7973 171.741 20.104C172.093 19.4107 172.568 18.8773 173.165 18.504C173.763 18.1307 174.429 17.944 175.165 17.944C175.795 17.944 176.344 18.072 176.813 18.328C177.293 18.584 177.661 18.92 177.917 19.336V18.072H180.653V27H177.917V25.736C177.651 26.152 177.277 26.488 176.797 26.744C176.328 27 175.779 27.128 175.149 27.128C174.424 27.128 173.763 26.9413 173.165 26.568C172.568 26.184 172.093 25.6453 171.741 24.952C171.4 24.248 171.229 23.4373 171.229 22.52ZM177.917 22.536C177.917 21.8533 177.725 21.3147 177.341 20.92C176.968 20.5253 176.509 20.328 175.965 20.328C175.421 20.328 174.957 20.5253 174.573 20.92C174.2 21.304 174.013 21.8373 174.013 22.52C174.013 23.2027 174.2 23.7467 174.573 24.152C174.957 24.5467 175.421 24.744 175.965 24.744C176.509 24.744 176.968 24.5467 177.341 24.152C177.725 23.7573 177.917 23.2187 177.917 22.536ZM75.552 40.384C75.552 41.0347 75.4027 41.632 75.104 42.176C74.8053 42.7093 74.3467 43.1413 73.728 43.472C73.1093 43.8027 72.3413 43.968 71.424 43.968H69.728V48H66.992V36.768H71.424C72.32 36.768 73.0773 36.9227 73.696 37.232C74.3147 37.5413 74.7787 37.968 75.088 38.512C75.3973 39.056 75.552 39.68 75.552 40.384ZM71.216 41.792C71.7387 41.792 72.128 41.6693 72.384 41.424C72.64 41.1787 72.768 40.832 72.768 40.384C72.768 39.936 72.64 39.5893 72.384 39.344C72.128 39.0987 71.7387 38.976 71.216 38.976H69.728V41.792H71.216ZM76.4324 43.52C76.4324 42.6027 76.603 41.7973 76.9444 41.104C77.2964 40.4107 77.771 39.8773 78.3684 39.504C78.9657 39.1307 79.6324 38.944 80.3684 38.944C80.9977 38.944 81.547 39.072 82.0164 39.328C82.4964 39.584 82.8644 39.92 83.1204 40.336V39.072H85.8564V48H83.1204V46.736C82.8537 47.152 82.4804 47.488 82.0004 47.744C81.531 48 80.9817 48.128 80.3524 48.128C79.627 48.128 78.9657 47.9413 78.3684 47.568C77.771 47.184 77.2964 46.6453 76.9444 45.952C76.603 45.248 76.4324 44.4373 76.4324 43.52ZM83.1204 43.536C83.1204 42.8533 82.9284 42.3147 82.5444 41.92C82.171 41.5253 81.7124 41.328 81.1684 41.328C80.6244 41.328 80.1604 41.5253 79.7764 41.92C79.403 42.304 79.2164 42.8373 79.2164 43.52C79.2164 44.2027 79.403 44.7467 79.7764 45.152C80.1604 45.5467 80.6244 45.744 81.1684 45.744C81.7124 45.744 82.171 45.5467 82.5444 45.152C82.9284 44.7573 83.1204 44.2187 83.1204 43.536ZM92.8118 45.68V48H91.4198C90.4278 48 89.6544 47.76 89.0998 47.28C88.5451 46.7893 88.2678 45.9947 88.2678 44.896V41.344H87.1798V39.072H88.2678V36.896H91.0038V39.072H92.7958V41.344H91.0038V44.928C91.0038 45.1947 91.0678 45.3867 91.1958 45.504C91.3238 45.6213 91.5371 45.68 91.8358 45.68H92.8118ZM97.0718 40.56C97.3918 40.0693 97.7918 39.6853 98.2718 39.408C98.7518 39.12 99.2851 38.976 99.8718 38.976V41.872H99.1198C98.4371 41.872 97.9251 42.0213 97.5838 42.32C97.2424 42.608 97.0718 43.12 97.0718 43.856V48H94.3358V39.072H97.0718V40.56ZM102.556 38.144C102.076 38.144 101.681 38.0053 101.372 37.728C101.073 37.44 100.924 37.088 100.924 36.672C100.924 36.2453 101.073 35.8933 101.372 35.616C101.681 35.328 102.076 35.184 102.556 35.184C103.025 35.184 103.409 35.328 103.708 35.616C104.017 35.8933 104.172 36.2453 104.172 36.672C104.172 37.088 104.017 37.44 103.708 37.728C103.409 38.0053 103.025 38.144 102.556 38.144ZM103.916 39.072V48H101.18V39.072H103.916ZM117.29 38.976C118.4 38.976 119.28 39.312 119.93 39.984C120.592 40.656 120.922 41.5893 120.922 42.784V48H118.202V43.152C118.202 42.576 118.048 42.1333 117.738 41.824C117.44 41.504 117.024 41.344 116.49 41.344C115.957 41.344 115.536 41.504 115.226 41.824C114.928 42.1333 114.778 42.576 114.778 43.152V48H112.058V43.152C112.058 42.576 111.904 42.1333 111.594 41.824C111.296 41.504 110.88 41.344 110.346 41.344C109.813 41.344 109.392 41.504 109.082 41.824C108.784 42.1333 108.634 42.576 108.634 43.152V48H105.898V39.072H108.634V40.192C108.912 39.8187 109.274 39.5253 109.722 39.312C110.17 39.088 110.677 38.976 111.242 38.976C111.914 38.976 112.512 39.12 113.034 39.408C113.568 39.696 113.984 40.1067 114.282 40.64C114.592 40.1493 115.013 39.7493 115.546 39.44C116.08 39.1307 116.661 38.976 117.29 38.976ZM126.9 48.128C126.025 48.128 125.236 47.9413 124.532 47.568C123.838 47.1947 123.289 46.6613 122.884 45.968C122.489 45.2747 122.292 44.464 122.292 43.536C122.292 42.6187 122.494 41.8133 122.9 41.12C123.305 40.416 123.86 39.8773 124.564 39.504C125.268 39.1307 126.057 38.944 126.932 38.944C127.806 38.944 128.596 39.1307 129.3 39.504C130.004 39.8773 130.558 40.416 130.964 41.12C131.369 41.8133 131.572 42.6187 131.572 43.536C131.572 44.4533 131.364 45.264 130.948 45.968C130.542 46.6613 129.982 47.1947 129.268 47.568C128.564 47.9413 127.774 48.128 126.9 48.128ZM126.9 45.76C127.422 45.76 127.865 45.568 128.228 45.184C128.601 44.8 128.788 44.2507 128.788 43.536C128.788 42.8213 128.606 42.272 128.244 41.888C127.892 41.504 127.454 41.312 126.932 41.312C126.398 41.312 125.956 41.504 125.604 41.888C125.252 42.2613 125.076 42.8107 125.076 43.536C125.076 44.2507 125.246 44.8 125.588 45.184C125.94 45.568 126.377 45.76 126.9 45.76ZM138.463 38.976C139.509 38.976 140.341 39.3173 140.959 40C141.589 40.672 141.903 41.6 141.903 42.784V48H139.183V43.152C139.183 42.5547 139.029 42.0907 138.719 41.76C138.41 41.4293 137.994 41.264 137.471 41.264C136.949 41.264 136.533 41.4293 136.223 41.76C135.914 42.0907 135.759 42.5547 135.759 43.152V48H133.023V39.072H135.759V40.256C136.037 39.8613 136.41 39.552 136.879 39.328C137.349 39.0933 137.877 38.976 138.463 38.976ZM145.181 38.144C144.701 38.144 144.306 38.0053 143.997 37.728C143.698 37.44 143.549 37.088 143.549 36.672C143.549 36.2453 143.698 35.8933 143.997 35.616C144.306 35.328 144.701 35.184 145.181 35.184C145.65 35.184 146.034 35.328 146.333 35.616C146.642 35.8933 146.797 36.2453 146.797 36.672C146.797 37.088 146.642 37.44 146.333 37.728C146.034 38.0053 145.65 38.144 145.181 38.144ZM146.541 39.072V48H143.805V39.072H146.541ZM147.979 43.52C147.979 42.6027 148.15 41.7973 148.491 41.104C148.843 40.4107 149.318 39.8773 149.915 39.504C150.513 39.1307 151.179 38.944 151.915 38.944C152.545 38.944 153.094 39.072 153.563 39.328C154.043 39.584 154.411 39.92 154.667 40.336V39.072H157.403V48H154.667V46.736C154.401 47.152 154.027 47.488 153.547 47.744C153.078 48 152.529 48.128 151.899 48.128C151.174 48.128 150.513 47.9413 149.915 47.568C149.318 47.184 148.843 46.6453 148.491 45.952C148.15 45.248 147.979 44.4373 147.979 43.52ZM154.667 43.536C154.667 42.8533 154.475 42.3147 154.091 41.92C153.718 41.5253 153.259 41.328 152.715 41.328C152.171 41.328 151.707 41.5253 151.323 41.92C150.95 42.304 150.763 42.8373 150.763 43.52C150.763 44.2027 150.95 44.7467 151.323 45.152C151.707 45.5467 152.171 45.744 152.715 45.744C153.259 45.744 153.718 45.5467 154.091 45.152C154.475 44.7573 154.667 44.2187 154.667 43.536ZM162.119 36.16V48H159.383V36.16H162.119Z" fill="#FD7A1E"/>
<path d="M29.1669 14.4903C26.5443 14.4903 23.9375 14.4903 21.3149 14.4903C20.608 14.5185 19.9055 14.6135 19.2168 14.7741C18.1329 15.0901 17.1925 15.7683 16.5551 16.6937C15.9178 17.6191 15.6227 18.7346 15.7199 19.8512C15.748 19.9889 15.8088 20.1179 15.8973 20.2276C15.9857 20.3373 16.0993 20.4245 16.2286 20.4819C18.083 20.9702 19.8709 21.6796 21.5533 22.5947C22.7335 23.3576 23.6534 24.457 24.1918 25.7482C24.6738 27.0605 24.9004 28.4516 24.8594 29.8477C24.8594 31.7714 24.8594 33.7108 24.8594 35.6502C24.8594 35.934 25.0501 36.3912 25.2568 36.4701C26.108 36.7875 26.9786 37.0508 27.8635 37.2584C28.372 37.4404 28.9156 37.5051 29.453 37.4476C30.4862 37.2427 31.4716 36.8327 32.5048 36.5962C32.633 36.583 32.757 36.5438 32.8692 36.4809C32.9814 36.418 33.0793 36.3329 33.1569 36.2308C33.2345 36.1287 33.29 36.0119 33.32 35.8875C33.35 35.7632 33.3538 35.6341 33.3313 35.5083C33.3313 33.7423 33.3313 31.9763 33.3313 30.2104C33.2477 28.9273 33.3711 27.6392 33.6969 26.3947C34.0088 25.3877 34.5409 24.4614 35.2553 23.6819C35.9696 22.9024 36.8486 22.2889 37.8295 21.8852C39.1806 21.286 40.6588 20.9549 42.0734 20.4661C42.1742 20.4178 42.2624 20.3472 42.3313 20.2597C42.4002 20.1722 42.4479 20.0702 42.4708 19.9616C42.4027 19.0854 42.221 18.2216 41.9304 17.3915C41.5238 16.4231 40.811 15.6119 39.8994 15.0801C38.9878 14.5483 37.9267 14.3247 36.8759 14.443C34.3009 14.443 31.7418 14.443 29.1669 14.443V14.4903ZM4.22801 0.0473023L4.11674 0.299581C4.91148 0.977581 5.67443 1.62405 6.50096 2.30204C9.90244 5.31362 13.3516 8.34097 16.8326 11.3368C17.0875 11.4816 17.3861 11.5319 17.675 11.4787C18.8035 11.321 19.932 11.0214 21.0765 10.9584C22.8726 10.9584 24.6846 10.9584 26.4807 10.9584C27.1642 10.9584 27.3708 10.7376 27.3708 10.0754C27.3708 6.9219 27.3708 3.76842 27.3708 0.61493C27.3708 0.378418 27.3708 0.157674 27.3708 0L4.22801 0.0473023ZM30.8994 0.0473023C30.8842 0.183536 30.8842 0.321022 30.8994 0.457255C30.8994 3.72111 30.8994 6.9692 30.8994 10.2331C30.8994 10.7849 31.1219 10.9584 31.6465 10.9426C33.4744 10.9426 35.3023 10.9426 37.1302 10.9426C38.0521 10.9426 38.974 11.2106 39.8959 11.321C40.3727 11.321 40.9767 11.5891 41.3105 11.321C42.0604 10.7705 42.767 10.1643 43.4245 9.50776L51.801 2.23898L54.0581 0.283814C54.0245 0.207502 53.9979 0.128345 53.9786 0.0473023H30.8994ZM57.1576 2.17591L56.8556 2.41242L50.0367 8.38827L44.4577 13.1973C43.949 13.6388 43.8696 13.9857 44.3146 14.6006C45.3415 15.8159 45.9043 17.351 45.9041 18.9367C45.9041 19.4255 46.1425 19.5201 46.5717 19.3466C47.4459 19.0155 48.3042 18.6844 49.1784 18.3848C51.6421 17.5491 54.1058 16.7135 56.5854 15.9251C57.9841 15.4836 58 15.5152 58 14.0488C58 11.0687 58 8.10446 58 5.15595C57.972 4.10234 57.665 3.0746 57.1099 2.17591H57.1576ZM0.842422 2.17591C0.516174 2.87394 0.281148 3.61046 0.143053 4.36758C0.143053 7.93102 0.143053 11.4156 0.143053 14.9475C0.148193 15.0483 0.174955 15.1469 0.221552 15.2366C0.268149 15.3263 0.333507 15.4052 0.413264 15.4678C0.837458 15.6565 1.2727 15.8198 1.71663 15.9566L7.2798 17.8803L11.8734 19.457C11.9688 19.3466 12.0164 19.3151 12.0323 19.2678C12.0472 19.1738 12.0472 19.078 12.0323 18.984C12.1322 17.3239 12.7738 15.7411 13.8602 14.4745C14.2735 13.9069 14.194 13.6231 13.7172 13.2131C12.2549 11.9675 10.8243 10.7061 9.37791 9.50776L4.11674 4.77753C3.13127 3.98916 2.1299 3.20079 0.890107 2.14437L0.842422 2.17591ZM57.9841 31.2668V18.9682C56.6807 19.4255 55.4409 19.8354 54.217 20.2927C52.9931 20.7499 51.6739 21.286 50.3864 21.7433C49.0989 22.2005 47.8432 22.6263 46.5558 23.0204C46.063 23.1781 45.9518 23.4619 45.9518 23.935C45.9518 26.0636 45.9518 28.1922 45.9518 30.3365C45.9518 31.0145 46.1902 31.2195 46.8578 31.2195C50.148 31.2195 53.4223 31.2195 56.7125 31.2195L57.9841 31.2668ZM0.143053 19.0628V31.188C0.143053 31.188 0.143053 31.2668 0.254316 31.2668H11.3807C11.8575 31.2668 12.0323 31.0461 12.0323 30.6046C12.0323 28.3183 12.0323 26.0478 12.0323 23.7773C12.0155 23.6156 11.9607 23.4601 11.8724 23.3232C11.7841 23.1863 11.6647 23.0718 11.5237 22.9889C10.8342 22.6746 10.1223 22.4111 9.39381 22.2005L0.143053 19.0628ZM44.6484 41.7049L45.7133 41.9887C46.6829 42.2567 47.6366 42.5721 48.6062 42.8086C50.4977 43.2816 52.4209 43.7073 54.3124 44.1646C55.1707 44.3695 56.0131 44.6376 56.8715 44.811C56.9846 44.8133 57.0965 44.787 57.1966 44.7346C57.2967 44.6822 57.3817 44.6054 57.4437 44.5115C57.6841 43.9826 57.8345 43.4178 57.8887 42.8401C57.8887 40.4435 57.8887 38.1099 57.8887 35.6344C57.8887 35.0037 57.7139 34.7987 57.0463 34.7987C53.8674 34.7987 50.593 34.7987 47.3505 34.7987C45.6021 34.7987 45.761 34.641 45.761 36.3755C45.761 38.1099 46.0312 40.1123 44.5848 41.7522L44.6484 41.7049ZM13.0178 41.7522C12.7953 41.2634 12.6045 40.9165 12.4615 40.5696C12.2364 40.1155 12.0759 39.6326 11.9847 39.1348C11.9052 37.968 11.9052 36.8012 11.9847 35.6186C11.9847 34.9564 11.7303 34.783 11.1104 34.7987C7.67717 34.7987 4.2492 34.7987 0.826528 34.7987C0.222527 34.7987 0 34.9564 0 35.5871C0 38.0783 0 40.5696 0 43.0766C0.0276526 43.5841 0.134906 44.0841 0.317895 44.5588C0.378853 44.6478 0.46232 44.7195 0.559949 44.7665C0.657577 44.8136 0.765944 44.8343 0.874212 44.8268C2.25706 44.4799 3.62401 44.1015 4.97506 43.7231C5.97643 43.4393 6.96191 43.1397 7.96328 42.9032C9.55275 42.509 11.2376 42.1463 13.0337 41.7522H13.0178ZM15.1636 55.9428L26.7032 64C26.7095 63.895 26.7095 63.7897 26.7032 63.6846C26.7032 59.932 26.7032 56.1951 26.7032 52.4425C26.6802 52.2573 26.6207 52.0784 26.528 51.9161C26.4352 51.7537 26.3111 51.6111 26.1628 51.4964C25.0025 50.5977 23.7786 49.762 22.5865 48.8948C22.5156 48.8181 22.4278 48.7586 22.33 48.7209C22.2322 48.6832 22.127 48.6684 22.0225 48.6775C21.918 48.6867 21.817 48.7195 21.7274 48.7736C21.6377 48.8277 21.5619 48.9016 21.5056 48.9894C20.0115 50.5662 18.5015 52.2375 16.9915 53.8615C16.4034 54.4922 15.8153 55.1545 15.1159 55.9428H15.1636ZM30.2001 63.8266C30.3161 63.8419 30.4337 63.8419 30.5497 63.8266L40.0866 57.3146C40.4681 57.0623 40.3886 56.8258 40.1661 56.5262L35.0638 49.5886C34.8413 49.289 34.6506 49.2417 34.3327 49.4782C33.1565 50.3454 31.9644 51.2284 30.7564 52.0641C30.5373 52.2182 30.3613 52.4248 30.2445 52.6647C30.1278 52.9045 30.0742 53.1698 30.0888 53.4358C30.0888 56.5893 30.0888 59.9005 30.0888 63.1328C30.0888 63.3693 30.0888 63.6058 30.0888 63.8896L30.2001 63.8266ZM54.1853 47.9645V47.7595L52.0077 47.1604L47.8273 46.0094C45.9836 45.5363 44.1398 45.0475 42.2801 44.6061C41.9019 44.5307 41.5092 44.5864 41.1674 44.7637C40.2296 45.3471 39.3713 46.0567 38.4494 46.6558C37.9249 47.0027 37.9249 47.3181 38.2905 47.7911C39.3078 49.1155 40.2773 50.4558 41.2787 51.796L43.7265 55.0756L54.1853 47.9645ZM35.4771 39.2451C35.8114 39.433 36.1563 39.6015 36.5103 39.7497C37.6547 40.0966 38.7991 40.3962 39.9594 40.7273C40.2 40.8258 40.4675 40.8388 40.7166 40.7641C40.9657 40.6893 41.1811 40.5315 41.3264 40.3173C42.0518 39.3847 42.4582 38.2468 42.4867 37.0692C42.4867 32.9539 42.4867 28.8386 42.4867 24.7233C42.4867 24.4868 42.4867 24.2345 42.3913 23.9507C41.2151 24.3291 40.1184 24.6287 39.0852 25.0229C38.3732 25.3228 37.7772 25.8418 37.3851 26.5033C36.9931 27.1647 36.8257 27.9337 36.9076 28.6967C36.8123 31.1091 36.7805 33.5373 36.7646 35.9497C36.7646 37.1638 36.8917 38.3779 35.4771 39.2451V39.2451ZM15.7676 23.9192C15.7676 24.2661 15.6881 24.4868 15.6881 24.7233C15.6881 28.8859 15.6881 33.0485 15.6881 37.2111C15.6908 38.3878 16.1521 39.5178 16.9756 40.3646C17.1166 40.4837 17.2821 40.5708 17.4606 40.6198C17.639 40.6688 17.8261 40.6786 18.0088 40.6484C19.2962 40.3804 20.5678 40.0177 21.8553 39.7024C22.4593 39.5605 22.5388 39.324 22.1255 38.8667C21.5788 38.2976 21.2767 37.5399 21.2831 36.7539C21.2831 33.7581 21.0765 30.7623 21.0288 27.7664C21.0325 27.2314 20.8738 26.7076 20.5733 26.2633C20.2728 25.8189 19.8444 25.4746 19.3439 25.2752C18.2313 24.7549 17.0392 24.3922 15.7676 23.9192ZM3.70348 47.8069C4.03727 48.0749 4.19622 48.2326 4.40285 48.3745L11.1263 52.9943C12.3979 53.8773 12.4297 53.8931 13.4629 52.8051C15.3067 50.8657 17.1028 48.8948 18.9307 46.9396C19.2009 46.6558 19.2962 46.4035 18.9307 46.1513C18.2313 45.6467 17.5319 45.1264 16.8008 44.6691C16.5677 44.5429 16.295 44.5091 16.0378 44.5745C15.0841 44.7953 14.1463 45.0791 13.2086 45.3314C11.4283 45.7886 9.64812 46.2301 7.86791 46.7031C6.54864 47.0342 5.21348 47.3969 3.70348 47.8069V47.8069ZM36.9553 43.392L32.5048 42.1463C31.7047 41.8674 30.887 41.6409 30.057 41.4683C28.7102 41.2956 27.3415 41.4919 26.0992 42.036C24.779 42.486 23.4368 42.8702 22.0778 43.187C21.8551 43.25 21.6373 43.3291 21.4261 43.4235C21.5215 43.5812 21.5533 43.66 21.601 43.6916C23.9534 45.2998 26.3005 46.9134 28.6424 48.5322C29.1033 48.8317 29.4212 48.6425 29.7868 48.406L35.3817 44.5903C35.8745 44.2434 36.3354 43.865 36.9712 43.392" fill="#FD7A1E"/>
</svg>
